<?xml version="1.0" encoding="utf-8"?>
<!-- Generator: Adobe Illustrator 26.3.0, SVG Export Plug-In . SVG Version: 6.00 Build 0)  -->
<svg version="1.1" id="Capa_1" xmlns="http://www.w3.org/2000/svg" xmlns:xlink="http://www.w3.org/1999/xlink" x="0px" y="0px"
	 viewBox="0 0 1000 1000" style="enable-background:new 0 0 1000 1000;" xml:space="preserve">
<style type="text/css">
	.st0{fill:#FCFCFB;}
	.st1{fill:#343A40;}
	.st2{fill:#EFEFF3;}
	.st3{fill:#F0EFF2;}
	.st4{fill:#EFEEF1;}
	.st5{fill:#F5C90B;}
	.st6{fill:#F4CC1C;}
	.st7{fill:#7BDCD5;}
	.st8{fill:#F7F0E5;}
	.st9{fill:#575E72;}
	.st10{fill:#D2C83E;}
	.st11{fill:#DF2E73;}
	.st12{fill:#E472A2;}
	.st13{fill:#CCA91C;}
	.st14{fill:#6A7085;}
	.st15{fill:#3D4149;}
</style>
<g>
	<g>
		<path class="st0" d="M999.76,500c0,163.33-0.08,326.67,0.24,490c0.02,8.38-1.62,10-10,10c-326.67-0.28-653.34-0.28-980,0
			c-8.38,0.01-10-1.62-10-10C0.28,663.33,0.28,336.67,0,10c-0.01-8.38,1.62-10,10-10c326.67,0.28,653.34,0.28,980,0
			c8.38-0.01,10.02,1.61,10,10C999.68,173.33,999.76,336.67,999.76,500z M266.08,175.71c-0.41-2.37-1.81-3.55-4.23-3.45
			c-0.85-0.71-1.81-0.94-2.89-0.7c-0.82-0.98-1.61-1.99-2.48-2.92c-2.56-2.78-9.06-3.28-8.3-6.8c0.79-3.66,6.45-1.49,9.94-1.69
			c3.86-0.23,8.13-0.78,11.58,0.52c14.87,5.62,29.3-1.64,44.03-1.05c8.95,0.36,14.48-7.43,14.18-15.24
			c-0.3-7.73-6.07-13.74-15.1-14.84c-5.11-0.62-10.35-0.29-15.53-0.29c-41.46-0.01-82.92,0.01-124.39,0.01
			c-20.08,0-40.17-0.08-60.25-0.01c-5.78,0.02-11.68-0.36-16.41,4.23c-10.22,9.92-7.26,18.51,9.47,27.22
			c12.65,4.9,33.35,4.98,46.73,0.18c2.6,0,5.21,0,7.81,0.01c0.04,2.44,0.08,4.88,0.11,7.32c-0.2,1.19-0.44,2.36-0.74,3.52
			c-3.29,0.04-5.71,1.73-7.74,4.14c-9.38,6.54-19.51,9.82-31.13,7.98c-3.71-0.59-7.66-0.18-11.43,0.3c-3.13,0.4-3.33,3.38-3.82,5.86
			c-13.27,4.7-14.58,7.53-11.41,24.64c-0.05,147.54-0.11,295.09-0.15,442.63c0,3.25-0.08,6.51,0.14,9.74
			c0.2,2.92,2.23,4.44,4.85,5.27c-0.44,9.72-0.87,19.43-1.33,29.15c-0.56,11.94,2.6,23.15,7.76,33.63
			c9.02,18.29,9.3,18.14-11.61,19.08c-3.76,0.17-8.56-1.37-10.75,2.52c-2.97,5.25-2.2,11.59-0.86,17.08
			c1.42,5.83,7.9,2.43,11.73,4.31c0.02,31.18,0.28,62.37-0.09,93.55c-0.1,8.42,2.55,12.07,11.09,11.07c3.2-0.38,6.49-0.06,9.74-0.06
			c178.01,0,356.02-0.01,534.02-0.01c3.01,18.76,3.15,18.9,21.67,19.15c17.4,0.24,34.8,0.45,52.2,0.67
			c-0.1,1.89-0.21,3.77-0.31,5.66c-5.17-0.95-8.54,1.48-10.8,5.85c-1.8,3.47-4.05,6.44-7.79,8c-4.65-0.67-8.32,0.09-8.54,5.87
			c-5.11,1.73-10.22,1.74-15.33,0.01c-0.98-9-8.05-6.21-12.86-5.89c-4.85,0.33-11.59-3.73-14.27,4.22c-0.38,1.12-0.15,2.44-0.2,3.67
			c0.17,1.26-0.04,2.45-0.63,3.57c-3.25,1.14-3.7,2.41-0.18,3.87c1.73,15.35,1.71,15.53,15.88,17.46
			c6.38,0.87,12.89,1.26,19.32,1.16c36.26-0.57,72.56-2.71,108.76-1.62c25.21,0.76,50.29-1.75,75.42-0.41
			c7.85,0.42,14.25-1.14,15.75-10.41c1.52-9.43-2.48-14.74-11.77-16.28c-8.76-7.16-18.25-7.61-31.42-1.47
			c-8.68-1.13-12.85-7.32-16.24-14.42c0.22-2.97,0.45-5.94,0.67-8.91c14.83-0.24,29.69-0.01,44.48-0.88
			c9.3-0.55,17.68-11.22,16.95-19.8c-0.67-7.8-7.99-14.11-17.48-14.73c-4.5-0.29-9.03-0.01-13.55-0.04
			c-30.96-0.22-61.91-0.46-92.87-0.7c0.01-29.39,0.02-58.78,0.03-88.17c9.05-0.25,18.1-0.7,27.15-0.72
			c33.05-0.1,66.1-0.18,99.15,0.04c7.14,0.05,10.59-1.86,10.49-9.77c-0.16-11.71-0.78-12.87-13.1-13.46
			c-3.23-0.16-6.49,0.07-9.72-0.11c-10.71-0.59-12.06-2.35-5.76-10.71c10.78-14.31,13.97-30.26,13.09-47.58
			c-0.33-6.46-0.41-12.94-0.6-19.41c0.76-26.4,5.16-52.49,4.48-79.1c-1.16-45.47,0.17-91-0.52-136.48
			c-0.35-23.12,3.57-46.49-3.4-69.43c-1.38-4.55-1.72-10.49,1.19-15.18c2.6-4.19,2.41-8.62,2.41-13.14c0-20.8-0.54-41.62,0.29-62.39
			c0.3-7.47-5.87-13.3-3.68-20.57c7.26-24.17,1.64-48.88,3.31-73.28c0.48-6.99-3.56-10.82-10.48-11.22
			c-4.54-0.26-9.1-0.07-13.65-0.07c-111.8,0-223.59,0.08-335.39-0.11c-13.41-0.02-26.95,1.99-40.24-3.33
			c-5.03-2.01-12.33-2.05-17.25,0.11c-10.75,4.72-21.62,3.04-32.47,3.26c-18.19,0.38-36.39,0.28-54.59,0.38
			c-6.12,0.04-12.24,0.07-18.36,0.11c-13.31-0.11-26.63-0.22-39.94-0.32c-1.29,0.01-2.58,0.01-3.87-0.01
			c-4.97-7.27-12.55-7.31-20.17-7.37c-10.15-0.08-20.29-0.27-30.44-0.42l-0.05-0.06c-1.01-4.94,0.51-11.44-7.45-12.11L266.08,175.71
			z"/>
		<path class="st1" d="M886.27,676.33c0.19,6.47,0.28,12.95,0.6,19.41c0.87,17.31-2.31,33.27-13.09,47.58
			c-6.29,8.36-4.95,10.12,5.76,10.71c3.23,0.18,6.48-0.04,9.72,0.11c12.32,0.6,12.94,1.75,13.1,13.46
			c0.11,7.91-3.34,9.82-10.49,9.77c-33.05-0.22-66.1-0.14-99.15-0.04c-9.05,0.03-18.1,0.47-27.15,0.72
			c-5.17-0.25-10.34-0.73-15.51-0.73c-214.2-0.04-428.41-0.04-642.61,0c-4.52,0-9.04,0.48-13.56,0.74
			c-3.83-1.88-10.31,1.51-11.73-4.31c-1.34-5.49-2.11-11.83,0.86-17.08c2.2-3.89,6.99-2.35,10.75-2.52
			c20.91-0.95,20.63-0.79,11.61-19.08c-5.17-10.48-8.32-21.69-7.76-33.63c0.46-9.72,0.89-19.43,1.33-29.15
			c2.23-0.01,4.46-0.02,6.69-0.02c-0.32,7.76-0.4,15.25,7.24,20.41c4.25,2.87,8.11,3.6,12.15,0.42c3.26-2.56,5.15-5.7,2.01-9.76
			c-2.58-3.34-1.66-7.3-1.82-11.06c11.68-0.25,23.4-1.19,35.03-0.53c9.9,0.56,11.96-3.48,11.77-12.45
			c-0.52-25.34-0.28-50.7-0.23-76.05c0.08-37.04,0.18-74.09,0.41-111.13c0.14-22.18,10.94-38.55,29.71-49.04
			c8.09-4.52,12.01-8.97,13.71-18.58c3.73-21.07,16.27-31.85,34.18-33.94c8.84-1.03,20.76,4.74,25.67-2.11
			c4.35-6.06,1.24-17.36,1.7-26.33c3-58.75,52.54-92.14,98.48-87.75c7.7,0.74,15.28,2.66,22.92,4.04c0.33,2.21,1.56,3.15,3.79,2.69
			c28.8,13.51,47.79,35,53.98,66.74c0.99,5.08,0.98,10.35,1.71,15.49c0.59,4.16-2.26,10.02,2.98,11.99
			c3.94,1.48,6.11-3.75,8.92-6.17c8.55-7.37,18.16-12.4,29.49-13.78c27.85-3.4,45.97,6.47,58.94,33.99
			c3.79,8.04,8.2,10.83,16.29,9.48c7.67-1.29,15.31-2.9,23.03-3.74c19.84-2.15,37.59,0.54,47.18,21.41
			c2.06,4.48,6.25,5.92,11.33,6.04c7.61,0.19,14.4-2.13,19.29-7.4c6.07-6.55,14.52-6.8,18.71-2.32c7.79,8.35,19.64,10.02,26.57,18.8
			c4.97,6.29,11.52,7.28,19.09,7.24c10.33-0.05,20.66-1,31.05,1.42c22.71,5.29,33.69,17.63,33.97,40.57
			c0.28,23.42,0.07,46.85,0.06,70.27c-0.01,41.64,0.03,83.29-0.05,124.93c-0.03,16.7-0.52,15.58,16.17,15.52
			c14.97-0.06,29.93-0.04,44.9-0.01C873.08,671.6,880.33,671.16,886.27,676.33z M305.01,359.27c-2.21,12.63,5.02,22.24,10.43,32.4
			c11.24,21.1,38.84,33.81,61.9,28.84c20.11-4.34,35.62-12.91,45.92-32.92c16.59-32.22,9.78-63.94-9.01-88.08
			c-3.86-4.96-9.1-6.99-15.06-7.76c-2.43-2.04-4.53-4.99-7.33-5.96c-24.19-8.44-47.27-6.44-66.73,11.1
			C306.78,313.43,300.9,334.98,305.01,359.27z M731.52,620.43c-6.89-8.68-9.83,0.28-13.38,3.41c-17.44,15.32-33.21,16.98-52.73,4.62
			c-4.88-3.09-9.44-6.8-13.73-10.68c-3.5-3.16-6.1-3.97-9.47,0.14c-2.45,2.98-5.57,5.45-8.54,7.97
			c-15.74,13.33-32.8,14.39-49.73,3.11c-3.23-2.15-6.88-3.96-9.43-6.76c-7.18-7.91-12.62-5.14-19.64,0.9
			c-20.83,17.91-35.84,18.03-57.14,1.76c-11.61-8.87-11.45-8.62-23.77-0.47c-25.59,16.93-38.17,17.75-62.19-3.64
			c-8-7.12-10.65-3.99-16.81,1.02c-24.83,20.19-39.1,20.38-63.59,0.3c-7.94-6.51-12.36-5.37-19.67,0.86
			c-22.06,18.79-37.92,17.73-55.54,3.29c-2.49-2.04-5.57-3.38-7.95-5.51c-5.32-4.78-10.18-5.05-15.13,0.46
			c-7.23,8.03-16.88,12.8-26.93,14.47c-8.45,1.41-10.61,4.36-10.41,12.27c0.71,28.45-2.96,23.6,23.76,23.63
			c162.49,0.17,324.98,0.11,487.47,0.09c6.48,0,12.96-0.41,19.45-0.63c14.24,0.21,28.49,0.37,42.73,0.68
			c5.37,0.12,8.67-1.62,8.58-7.6c-0.11-7.13-0.01-14.26-0.09-21.39c-0.04-3.65-1.74-6.61-5.6-6.26
			C755.75,637.93,744.6,626.8,731.52,620.43z M730.02,524.31c-5.18-0.25-10.36-0.71-15.54-0.71
			c-166.44-0.03-332.89-0.02-499.33-0.01c-3.25,0-6.51,0.17-9.75-0.03c-6.3-0.38-9.57,1.72-9.44,8.76
			c0.31,16.9,0.06,33.81,0.13,50.71c0.03,6.9,2.99,7.99,8.34,3.95c3.61-2.73,7.2-5.48,10.94-8.01
			c20.16-13.63,38.67-13.16,56.27,3.27c7.34,6.86,11.11,6.77,18.9,0.51c22.36-17.98,43.27-17.51,64.7,1.16
			c6.48,5.65,9.35,5.35,15.5-0.07c20.57-18.1,43.09-19.5,62.97-2.32c8.56,7.4,13.12,5.21,20.45,0.16
			c24.44-16.85,42.84-16.41,64.88,2.55c6.92,5.96,9.24,3.93,15.17-1.2c21.72-18.78,43.1-18.33,64.04,1
			c6.15,5.68,9.13,5.46,15.73,0.41c27.25-20.86,41.55-20.18,68.41,2.09c4.75,3.94,7.74,3.15,11.46-0.7
			c9.88-10.24,22.01-15.61,36.22-16.34c13.12-0.27,23.64,4.98,32.17,14.82c3.03,3.5,7,6.66,11.83,4.73
			c4.63-1.85,5.83-7.14,5.99-11.35c0.58-15.3,0.21-30.64,0.55-45.96c0.16-7.38-4.07-8.37-9.9-8.22
			C757.15,523.86,743.59,524.05,730.02,524.31z M242.32,703.05c-37.09-0.02-74.18,0-111.27-0.11c-7.34-0.02-10.33,0.59-7.25,9.92
			c3.61,10.93,7.68,21.9,17.5,26.75c11.94,5.9,22.37,14.6,37.87,14.55c203.67-0.64,407.35-0.71,611.03-0.04
			c20.92,0.07,37.64-8.94,55-17.05c10.53-4.92,15.04-15.63,14.02-27.82c-0.31-3.75-1.97-6-5.9-6.1c-3.25-0.09-6.5-0.12-9.76-0.12
			c-197.82,0.01-395.64,0.03-593.46,0.05C247.51,703.05,244.91,703.05,242.32,703.05z M487.57,496.33c0-0.05,0-0.11,0-0.16
			c87.79,0,175.58,0.17,263.36-0.25c9.63-0.05,23.1,5.91,28.22-4.53c4.11-8.38,1.62-20.47,0.6-30.76
			c-1.01-10.23-6.33-14.63-16.97-15.18c-11.68-0.61-23.4-0.22-35.1-0.47c-5.18-0.11-8.29,0.96-8.97,7.17
			c-0.9,8.28-6.92,10.62-14.24,8.41c-6.65-2.01-9.95-11.7-4.48-17.85c5.92-6.65,5.65-8.59-1.52-13.8
			c-8.42-6.12-15.03-6.85-24.65-2.65c-21.68,9.47-36.33,5.18-50.24-14.02c-5.4-7.45-11.59-10.32-19.9-8.27
			c-12.16,3.01-24.58,1.92-36.83,3.16c-12.75,1.29-22.29-2.62-27.51-15.99c-2.05-5.24-4.1-10.78-6.73-15.95
			c-7.04-13.81-19.31-18.49-33.97-13.27c-7.89,2.81-12.31,9.26-18,14.48c-4.23,3.88-7.49,11.32-13.41,10.3
			c-13.81-2.38-17.01,6.51-21.83,15.94c-3.77,7.37-9.03,14.83-15.51,19.77c-11.59,8.85-21.27,18.3-24.69,33
			c-0.34,1.48-2.64,3.58-4,3.55c-3.88-0.08-2.58-3.72-2.37-5.63c0.9-7.91-3.71-8.02-9.55-7.84c-14.89,0.46-29.8,0.9-44.69,0.52
			c-5.6-0.14-13.71,2.03-16.54-3.01c-7.02-12.49-22.31-15.64-29.09-27.63c-7-12.38-19.08-15.57-31.22-16.32
			c-22.15-1.37-31.89,7.88-29.09,25.88c0.39,2.54-0.2,5.22,0.08,7.79c0.76,6.91-2.36,9.48-8.99,8.71
			c-11.86-1.38-20.4,4.94-26.14,13.87c-6.77,10.52-8.2,22.92-7.38,35.43c0.27,4.1,2.94,5.44,6.51,5.53
			c4.55,0.12,9.1,0.07,13.65,0.07C306.8,496.33,397.19,496.33,487.57,496.33z"/>
		<path class="st2" d="M886.27,676.33c-5.94-5.17-13.19-4.73-20.32-4.74c-14.97-0.03-29.93-0.04-44.9,0.01
			c-16.69,0.06-16.2,1.18-16.17-15.52c0.08-41.64,0.04-83.29,0.05-124.93c0-23.43,0.22-46.85-0.06-70.27
			c-0.28-22.94-11.26-35.28-33.97-40.57c-10.39-2.42-20.72-1.47-31.05-1.42c-7.58,0.04-14.13-0.95-19.09-7.24
			c-6.93-8.78-18.78-10.45-26.57-18.8c-4.18-4.48-12.64-4.23-18.71,2.32c-4.89,5.27-11.68,7.59-19.29,7.4
			c-5.07-0.13-9.26-1.56-11.33-6.04c-9.6-20.87-27.34-23.56-47.18-21.41c-7.72,0.84-15.36,2.45-23.03,3.74
			c-8.08,1.36-12.5-1.43-16.29-9.48c-12.97-27.52-31.09-37.39-58.94-33.99c-11.33,1.38-20.95,6.41-29.49,13.78
			c-2.81,2.42-4.98,7.65-8.92,6.17c-5.23-1.97-2.39-7.83-2.98-11.99c-0.73-5.14-0.72-10.41-1.71-15.49
			c-6.19-31.74-25.17-53.24-53.98-66.74c0-7.51,5.29-12.81,8.04-19.16c6.5-14.98,2.24-29.67-11.37-38.29
			c-4.22-2.67-9.76-3.22-12.74-7.9c18.2-0.1,36.4,0,54.59-0.38c10.85-0.22,21.72,1.46,32.47-3.26c4.91-2.15,12.22-2.12,17.25-0.11
			c13.29,5.32,26.83,3.31,40.24,3.33c111.8,0.19,223.59,0.11,335.39,0.11c4.55,0,9.11-0.19,13.65,0.07
			c6.92,0.4,10.96,4.23,10.48,11.22c-1.67,24.4,3.95,49.12-3.31,73.28c-2.18,7.27,3.98,13.1,3.68,20.57
			c-0.82,20.77-0.28,41.59-0.29,62.39c0,4.52,0.19,8.95-2.41,13.14c-2.91,4.69-2.58,10.63-1.19,15.18
			c6.97,22.94,3.05,46.31,3.4,69.43c0.7,45.49-0.64,91.02,0.52,136.48C891.43,623.84,887.03,649.93,886.27,676.33z"/>
		<path class="st3" d="M93.88,778.07c4.52-0.26,9.04-0.74,13.56-0.74c214.2-0.04,428.41-0.04,642.61,0c5.17,0,10.34,0.48,15.51,0.73
			c-0.01,29.39-0.02,58.78-0.03,88.17c-31.48,0.26-62.95,0.8-94.43,0.65c-11.74-0.05-20.2,3.01-22.46,15.73
			c-178.01,0-356.02,0.01-534.02,0.01c-3.25,0-6.53-0.32-9.74,0.06c-8.55,1-11.19-2.65-11.09-11.07
			C94.16,840.44,93.9,809.25,93.88,778.07z"/>
		<path class="st4" d="M398.57,258.42c-7.64-1.38-15.22-3.3-22.92-4.04c-45.94-4.39-95.48,29.01-98.48,87.75
			c-0.46,8.97,2.65,20.27-1.7,26.33c-4.91,6.85-16.83,1.08-25.67,2.11c-17.91,2.08-30.46,12.87-34.18,33.94
			c-1.7,9.61-5.63,14.06-13.71,18.58c-18.76,10.49-29.57,26.86-29.71,49.04c-0.23,37.04-0.33,74.09-0.41,111.13
			c-0.05,25.35-0.29,50.71,0.23,76.05c0.18,8.97-1.87,13.01-11.77,12.45c-11.63-0.66-23.35,0.28-35.03,0.53
			c-6.53-1.08-13.05-1.05-19.58-0.01c-2.23,0.01-4.46,0.02-6.69,0.02c-2.62-0.84-4.65-2.36-4.85-5.27c-0.22-3.24-0.14-6.5-0.14-9.74
			c0.05-147.54,0.1-295.09,0.15-442.63c5.89,5.1,13.07,4.58,20.11,4.58c28.33,0,56.67-0.29,85,0.05c18.62,0.23,37.3-1.7,55.86,1.25
			c4.46,7.07,2.35,14.97,2.8,22.54c0.54,9.1-2.47,14.92-12.89,14.8c-5.8-0.07-10.77,2.94-9.35,9.22c1.31,5.79,7.08,6.78,12.63,6.14
			c10.2-1.17,20.56-12.21,21.27-23.72c0.59-9.62,0.11-19.31,0.1-28.96c14.35-2.75,28.79-1.17,43.21-0.98
			c0.21,1.94,0.38,3.88,0.63,5.81c1.28,9.87,8.41,12.78,16.71,12.53c10.85-0.32,4.96-9.93,7.17-15.06
			c2.76-6.41-1.49-10.95-5.67-15.17c0.22-3.32,1.19-6.96-3.39-8.32c-0.03-1.28-0.13-2.56-0.3-3.83c13.31,0.11,26.63,0.22,39.94,0.32
			c-1.32,8.08,0.56,13.32,9.89,15.28c15.79,3.32,21.35,14.71,20.91,29.9C398.56,246.83,398.61,252.62,398.57,258.42z"/>
		<path class="st5" d="M312.83,219.58c-14.41-0.19-28.86-1.77-43.21,0.98c-4.85-1.71-9.71-1.7-14.56-0.02
			c-18.56-2.95-37.24-1.02-55.86-1.25c-28.33-0.35-56.67-0.05-85-0.05c-7.04,0-14.22,0.52-20.11-4.58
			c-3.17-17.11-1.86-19.94,11.41-24.64c10.05,0.37,20.12,0.43,30.13,1.2c11.38,0.87,15.84-4.92,16.24-15.34
			c2.03-2.41,4.45-4.09,7.74-4.14c3.38,0.23,7.05,1.2,8.49-3.4c10.08-0.26,20.17-0.52,30.25-0.78c8.07,1.09,15.45,6.66,23.97,4.41
			c12.24-3.23,24.4-2.03,36.63-0.39c1.08-0.25,2.04-0.01,2.89,0.7c0.46,2.32,1.88,3.46,4.23,3.45l-0.09-0.14
			c-0.94,6.15,1.8,10.02,7.45,12.11l0.05,0.06c-0.2,5.66,2.39,7.88,8.16,7.78c14.15-0.25,28.3-0.03,42.45,0
			c1.29,0.01,2.58,0.01,3.87,0.01c0.17,1.27,0.27,2.55,0.3,3.83c0.11,2.97,0.22,5.95,0.34,8.92
			C325.88,215.58,315.97,212.85,312.83,219.58z"/>
		<path class="st5" d="M651.79,933.4c0.59-1.12,0.79-2.32,0.63-3.57c9.02-1.92,18.38,0.96,27.32-2c5.11,1.73,10.22,1.72,15.33-0.01
			c5.93,2.53,7.51-1.27,8.54-5.87c3.74-1.55,6-4.53,7.79-8c2.26-4.37,5.63-6.8,10.8-5.85c5.61,3.59,11.03,1.77,16.52-0.43
			c7.52-3.02,15.89-3.26,22.95-0.94c11.55,3.79,23.05,2.64,34.62,3.12c10.35,0.43,20.78-1.14,31.03,1.45
			c3.38,7.09,7.56,13.29,16.24,14.42c10.22,5.98,20.83,3.49,31.42,1.47c9.29,1.55,13.29,6.85,11.77,16.28
			c-1.49,9.27-7.9,10.82-15.75,10.41c-25.13-1.33-50.21,1.18-75.42,0.41c-36.2-1.1-72.5,1.04-108.76,1.62
			c-6.44,0.1-12.94-0.29-19.32-1.16c-14.18-1.93-14.15-2.11-15.88-17.46C651.67,935.98,651.73,934.69,651.79,933.4z"/>
		<path class="st5" d="M648.64,882.62c2.26-12.72,10.72-15.79,22.46-15.73c31.47,0.15,62.95-0.39,94.43-0.65
			c30.96,0.23,61.91,0.47,92.87,0.7c4.52,0.03,9.05-0.25,13.55,0.04c9.49,0.61,16.81,6.92,17.48,14.73
			c0.73,8.58-7.65,19.25-16.95,19.8c-14.79,0.87-29.65,0.64-44.48,0.88c-35.16,0.02-70.32,0.04-105.48,0.06
			c-17.4-0.22-34.8-0.43-52.2-0.67C651.79,901.51,651.66,901.38,648.64,882.62z"/>
		<path class="st6" d="M258.96,171.56c-12.23-1.64-24.39-2.85-36.63,0.39c-8.52,2.25-15.9-3.32-23.97-4.41
			c0.07-2.48,8.09-6.57-0.46-7.12c-12.49-0.81-25.1,0.22-37.66,0.46c-2.6,0-5.21,0-7.81-0.01c-15.57-1.31-31.15-0.98-46.73-0.18
			c-16.73-8.71-19.68-17.3-9.47-27.22c4.73-4.59,10.63-4.21,16.41-4.23c20.08-0.06,40.17,0.01,60.25,0.01
			c41.46,0,82.92-0.02,124.39-0.01c5.18,0,10.42-0.33,15.53,0.29c9.03,1.1,14.8,7.1,15.1,14.84c0.3,7.81-5.23,15.6-14.18,15.24
			c-14.73-0.59-29.16,6.67-44.03,1.05c-3.45-1.3-7.72-0.75-11.58-0.52c-3.5,0.21-9.15-1.97-9.94,1.69c-0.76,3.51,5.74,4.02,8.3,6.8
			C257.34,169.58,258.13,170.58,258.96,171.56z M228.36,160.04c-4.27,0.83-10.77-2.33-10.94,3.12c-0.11,3.48,6.46,1.1,10.04,1.16
			c2.53,0.04,5.08-0.12,7.57-0.52c0.74-0.12,1.3-1.36,1.95-2.08c-0.53-0.35-1.04-0.92-1.6-1
			C232.88,160.4,230.36,160.22,228.36,160.04z"/>
		<path class="st7" d="M398.57,258.42c0.05-5.79-0.01-11.59,0.16-17.38c0.44-15.19-5.13-26.58-20.91-29.9
			c-9.33-1.96-11.21-7.2-9.89-15.28c6.12-0.04,12.24-0.07,18.36-0.11c2.97,4.68,8.52,5.23,12.74,7.9
			c13.62,8.62,17.87,23.3,11.37,38.29c-2.75,6.35-8.04,11.66-8.04,19.16C400.13,261.56,398.9,260.63,398.57,258.42z"/>
		<path class="st8" d="M722.51,902.43c35.16-0.02,70.32-0.04,105.48-0.06c-0.22,2.97-0.45,5.94-0.67,8.91
			c-10.24-2.6-20.68-1.03-31.03-1.45c-11.57-0.48-23.07,0.68-34.62-3.12c-7.06-2.32-15.43-2.07-22.95,0.94
			c-5.49,2.2-10.91,4.03-16.52,0.43C722.3,906.21,722.41,904.32,722.51,902.43z"/>
		<path class="st8" d="M151.88,175.86c-0.4,10.42-4.86,16.21-16.24,15.34c-10.02-0.77-20.09-0.82-30.13-1.2
			c0.49-2.48,0.69-5.47,3.82-5.86c3.77-0.48,7.72-0.88,11.43-0.3C132.37,185.68,142.5,182.41,151.88,175.86z"/>
		<path class="st6" d="M324.1,195.53c-14.15-0.03-28.3-0.25-42.45,0c-5.77,0.1-8.36-2.12-8.16-7.78
			c10.15,0.15,20.29,0.34,30.44,0.42C311.56,188.22,319.14,188.26,324.1,195.53z"/>
		<path class="st8" d="M160.24,160.88c12.56-0.24,25.17-1.27,37.66-0.46c8.55,0.55,0.53,4.64,0.46,7.12
			c-10.08,0.26-20.17,0.52-30.25,0.78c-2.58-0.04-5.17-0.08-7.75-0.12C160.32,165.76,160.28,163.32,160.24,160.88z"/>
		<path class="st8" d="M874.98,927.17c-10.59,2.03-21.2,4.51-31.42-1.47C856.73,919.56,866.23,920,874.98,927.17z"/>
		<path class="st8" d="M679.74,927.82c-8.94,2.96-18.31,0.08-27.32,2c0.05-1.23-0.18-2.55,0.2-3.67c2.68-7.95,9.42-3.89,14.27-4.22
			C671.69,921.61,678.76,918.82,679.74,927.82z"/>
		<path class="st8" d="M105.7,160.7c15.58-0.8,31.16-1.13,46.73,0.18C139.06,165.68,118.35,165.6,105.7,160.7z"/>
		<path class="st6" d="M273.45,187.68c-5.66-2.08-8.4-5.96-7.45-12.11C273.95,176.24,272.44,182.74,273.45,187.68z"/>
		<path class="st8" d="M703.61,921.95c-1.03,4.6-2.61,8.4-8.54,5.87C695.29,922.04,698.95,921.27,703.61,921.95z"/>
		<path class="st6" d="M160.36,168.2c2.58,0.04,5.17,0.08,7.75,0.12c-1.44,4.6-5.11,3.63-8.49,3.4
			C159.92,170.56,160.16,169.39,160.36,168.2z"/>
		<path class="st6" d="M266.08,175.71c-2.36,0.01-3.77-1.14-4.23-3.45C264.27,172.16,265.66,173.34,266.08,175.71z"/>
		<path class="st8" d="M651.79,933.4c-0.06,1.29-0.12,2.58-0.18,3.87C648.09,935.81,648.54,934.54,651.79,933.4z"/>
		<path class="st8" d="M487.57,496.33c-90.39,0-180.78,0-271.17,0c-4.55,0-9.11,0.05-13.65-0.07c-3.57-0.09-6.24-1.43-6.51-5.53
			c-0.83-12.51,0.61-24.91,7.38-35.43c5.74-8.93,14.28-15.25,26.14-13.87c6.63,0.77,9.75-1.8,8.99-8.71
			c-0.28-2.57,0.31-5.25-0.08-7.79c-2.8-18,6.95-27.26,29.09-25.88c12.15,0.75,24.22,3.95,31.22,16.32
			c6.78,11.98,22.07,15.13,29.09,27.63c2.83,5.03,10.94,2.86,16.54,3.01c14.88,0.38,29.8-0.06,44.69-0.52
			c5.84-0.18,10.45-0.08,9.55,7.84c-0.22,1.91-1.52,5.55,2.37,5.63c1.36,0.03,3.65-2.07,4-3.55c3.41-14.7,13.1-24.15,24.69-33
			c6.48-4.95,11.74-12.41,15.51-19.77c4.83-9.43,8.02-18.32,21.83-15.94c5.92,1.02,9.19-6.42,13.41-10.3
			c5.68-5.21,10.1-11.67,18-14.48c14.66-5.22,26.93-0.54,33.97,13.27c2.64,5.17,4.69,10.71,6.73,15.95
			c5.22,13.37,14.76,17.28,27.51,15.99c12.26-1.24,24.68-0.15,36.83-3.16c8.31-2.06,14.5,0.81,19.9,8.27
			c13.91,19.2,28.56,23.49,50.24,14.02c9.62-4.2,16.22-3.46,24.65,2.65c7.18,5.21,7.44,7.15,1.52,13.8
			c-5.48,6.15-2.17,15.84,4.48,17.85c7.32,2.21,13.33-0.13,14.24-8.41c0.68-6.21,3.78-7.28,8.97-7.17
			c11.7,0.25,23.43-0.14,35.1,0.47c10.63,0.55,15.96,4.95,16.97,15.18c1.02,10.3,3.51,22.38-0.6,30.76
			c-5.12,10.44-18.59,4.48-28.22,4.53c-87.79,0.42-175.57,0.25-263.36,0.25C487.57,496.22,487.57,496.27,487.57,496.33z
			 M265.75,457.22c19.29-4.47,22.63-11.45,13.41-28.04c-15.3-7.81-19.45-6.46-25.77,8.4c-1.05,2.59-0.93,5.16,0.12,7.71
			C253.53,453.44,257.22,457.82,265.75,457.22z M575.73,417.24c-13.15,0.04-14.14,0.89-14.08,12c0.06,10.59,3.58,14.95,12.49,15.43
			c8.53,0.46,13.03-4.66,12.99-14.81C587.08,418.76,585.68,417.21,575.73,417.24z M463.64,471.89c5.5-0.15,9.86-6.85,9.46-14.27
			c-0.37-6.83-3.95-11.3-10.63-10.93c-6.5,0.36-10.09,4.83-9.74,11.81C453.1,465.79,458.1,472.05,463.64,471.89z M620.71,461.56
			c0.01,4.1,1.62,9.56,9,10.39c6.54,0.74,11.46-6.26,11.16-15c-0.24-6.93-3.77-10.99-10.51-11.49
			C624.17,444.99,620.29,450.9,620.71,461.56z M517.78,441.07c5.9-0.75,9.53-3.88,9.95-9.81c0.45-6.3-1.54-11.58-8.41-13.11
			c-5.3-1.17-10.84,4.27-11.02,10.6C508.11,435.35,511.18,439.64,517.78,441.07z"/>
		<path class="st9" d="M250.1,703.05c197.82-0.02,395.64-0.04,593.46-0.05c3.25,0,6.51,0.04,9.76,0.12c3.93,0.11,5.58,2.36,5.9,6.1
			c1.02,12.19-3.49,22.9-14.02,27.82c-17.36,8.12-34.08,17.12-55,17.05c-203.67-0.67-407.35-0.6-611.03,0.04
			c-15.5,0.05-25.94-8.65-37.87-14.55c-9.82-4.85-13.89-15.82-17.5-26.75c-3.08-9.33-0.09-9.94,7.25-9.92
			c37.09,0.11,74.18,0.09,111.27,0.11c0.57,7.64-4.45,7.39-10.02,7.94c-10.65,1.06-18.08,9.72-17.14,18.77
			c0.96,9.3,7.98,16.02,17.91,16.15c19.39,0.25,38.79-0.2,58.17,0.19c7.87,0.16,10.27-3.22,9.68-10.4
			c-0.32-3.85-0.29-7.77-0.01-11.63c0.46-6.36-2.33-7.9-8.5-9.8c-11.4-3.51-22.71-3.56-34.19-3.36
			C252.4,711.02,249.85,708.73,250.1,703.05z"/>
		<path class="st10" d="M730.07,569.49c-14.2,0.73-26.34,6.1-36.22,16.34c-3.71,3.85-6.7,4.64-11.46,0.7
			c-26.86-22.27-41.15-22.95-68.41-2.09c-6.6,5.05-9.58,5.26-15.73-0.41c-20.95-19.34-42.32-19.78-64.04-1
			c-5.93,5.13-8.25,7.15-15.17,1.2c-22.03-18.96-40.44-19.4-64.88-2.55c-7.33,5.06-11.89,7.24-20.45-0.16
			c-19.89-17.18-42.4-15.78-62.97,2.32c-6.16,5.42-9.02,5.72-15.5,0.07c-21.43-18.67-42.34-19.14-64.7-1.16
			c-7.79,6.26-11.55,6.35-18.9-0.51c-17.6-16.44-36.11-16.9-56.27-3.27c-3.74,2.53-7.34,5.29-10.94,8.01
			c-5.36,4.05-8.32,2.95-8.34-3.95c-0.07-16.9,0.18-33.81-0.13-50.71c-0.13-7.04,3.14-9.14,9.44-8.76c3.24,0.19,6.5,0.03,9.75,0.03
			c166.44-0.01,332.89-0.02,499.33,0.01c5.18,0,10.36,0.46,15.54,0.71C724.54,539.38,724.36,554.43,730.07,569.49z"/>
		<path class="st10" d="M726.4,671.04c-6.48,0.22-12.96,0.63-19.45,0.63c-162.49,0.02-324.98,0.08-487.47-0.09
			c-26.72-0.03-23.05,4.82-23.76-23.63c-0.2-7.91,1.96-10.87,10.41-12.27c10.05-1.67,19.7-6.44,26.93-14.47
			c4.95-5.51,9.81-5.23,15.13-0.46c2.38,2.14,5.46,3.48,7.95,5.51c17.62,14.44,33.48,15.5,55.54-3.29
			c7.32-6.23,11.73-7.37,19.67-0.86c24.49,20.08,38.76,19.89,63.59-0.3c6.16-5.01,8.81-8.14,16.81-1.02
			c24.03,21.39,36.6,20.57,62.19,3.64c12.32-8.15,12.16-8.4,23.77,0.47c21.3,16.27,36.32,16.16,57.14-1.76
			c7.02-6.04,12.46-8.81,19.64-0.9c2.54,2.8,6.2,4.61,9.43,6.76c16.93,11.27,33.99,10.22,49.73-3.11c2.97-2.52,6.09-4.99,8.54-7.97
			c3.37-4.11,5.97-3.3,9.47-0.14c4.29,3.88,8.85,7.59,13.73,10.68c19.52,12.35,35.3,10.69,52.73-4.62
			c3.56-3.12,6.49-12.09,13.38-3.41c-5.86,1.63-5.02,6.4-5.03,10.76C726.45,644.47,726.43,657.75,726.4,671.04z"/>
		<path class="st11" d="M399.19,291.75c5.96,0.77,11.2,2.8,15.06,7.76c18.79,24.14,25.6,55.86,9.01,88.08
			c-10.3,20.01-25.81,28.59-45.92,32.92c-23.06,4.97-50.67-7.74-61.9-28.84c-5.41-10.15-12.64-19.77-10.43-32.4
			c4.54,0.04,8.82,0.37,13,2.96c17.02,10.51,32.85,4.71,46.38-6.26C384.55,339.63,396.99,318.25,399.19,291.75z"/>
		<path class="st12" d="M399.19,291.75c-2.2,26.5-14.64,47.88-34.8,64.23c-13.53,10.97-29.36,16.77-46.38,6.26
			c-4.19-2.59-8.46-2.92-13-2.96c-4.11-24.29,1.77-45.84,20.13-62.38c19.46-17.54,42.54-19.54,66.73-11.1
			C394.66,286.76,396.77,289.71,399.19,291.75z"/>
		<path class="st13" d="M730.07,569.49c-5.72-15.05-5.53-30.11-0.05-45.17c13.56-0.26,27.13-0.45,40.69-0.81
			c5.83-0.15,10.06,0.85,9.9,8.22c-0.34,15.32,0.04,30.66-0.55,45.96c-0.16,4.21-1.36,9.5-5.99,11.35
			c-4.82,1.93-8.79-1.23-11.83-4.73C753.72,574.46,743.19,569.22,730.07,569.49z"/>
		<path class="st14" d="M250.1,703.05c-0.25,5.68,2.29,7.96,8.12,7.86c11.48-0.2,22.79-0.14,34.19,3.36c6.17,1.9,8.96,3.44,8.5,9.8
			c-0.28,3.86-0.3,7.77,0.01,11.63c0.59,7.18-1.81,10.55-9.68,10.4c-19.38-0.39-38.78,0.06-58.17-0.19
			c-9.93-0.13-16.95-6.85-17.91-16.15c-0.93-9.05,6.49-17.72,17.14-18.77c5.57-0.55,10.58-0.31,10.02-7.94
			C244.91,703.05,247.51,703.05,250.1,703.05z"/>
		<path class="st13" d="M726.4,671.04c0.03-13.28,0.05-26.57,0.09-39.85c0.01-4.36-0.83-9.13,5.03-10.76
			c13.08,6.37,24.22,17.5,40.49,16.04c3.86-0.35,5.56,2.61,5.6,6.26c0.08,7.13-0.02,14.26,0.09,21.39c0.09,5.98-3.21,7.71-8.58,7.6
			C754.89,671.4,740.64,671.25,726.4,671.04z"/>
		<path class="st15" d="M105.63,672.27c6.53-1.04,13.05-1.07,19.58,0.01c0.16,3.76-0.76,7.72,1.82,11.06
			c3.14,4.06,1.25,7.2-2.01,9.76c-4.04,3.18-7.9,2.45-12.15-0.42C105.23,687.52,105.3,680.03,105.63,672.27z"/>
		<path class="st7" d="M255.07,220.54c4.86-1.68,9.71-1.69,14.56,0.02c0.01,9.66,0.49,19.34-0.1,28.96
			c-0.71,11.51-11.07,22.55-21.27,23.72c-5.55,0.64-11.31-0.35-12.63-6.14c-1.43-6.28,3.55-9.29,9.35-9.22
			c10.42,0.13,13.43-5.7,12.89-14.8C257.42,235.51,259.52,227.61,255.07,220.54z"/>
		<path class="st15" d="M312.83,219.58c3.14-6.73,13.05-3.99,15.78-11.29c0.97-0.44,1.99-0.64,3.05-0.6
			c4.17,4.22,8.43,8.76,5.67,15.17c-2.21,5.13,3.68,14.74-7.17,15.06c-8.3,0.24-15.42-2.66-16.71-12.53
			C313.21,223.45,313.04,221.51,312.83,219.58z"/>
		<path class="st6" d="M331.67,207.69c-1.07-0.04-2.08,0.16-3.05,0.6c-0.11-2.97-0.22-5.95-0.34-8.92
			C332.86,200.73,331.89,204.36,331.67,207.69z"/>
		<path class="st0" d="M228.36,160.04c2.01,0.18,4.52,0.36,7.01,0.68c0.57,0.07,1.07,0.65,1.6,1c-0.64,0.73-1.2,1.97-1.95,2.08
			c-2.49,0.4-5.05,0.56-7.57,0.52c-3.58-0.06-10.14,2.32-10.04-1.16C217.58,157.71,224.09,160.88,228.36,160.04z"/>
		<path class="st1" d="M575.73,417.24c9.95-0.03,11.36,1.52,11.39,12.61c0.04,10.16-4.46,15.28-12.99,14.81
			c-8.9-0.48-12.43-4.84-12.49-15.43C561.58,418.13,562.58,417.28,575.73,417.24z"/>
		<path class="st15" d="M279.16,429.18c9.22,16.59,5.88,23.57-13.41,28.04c0.22-8.39-4.13-12.09-12.24-11.93
			c-1.05-2.55-1.17-5.12-0.12-7.71C263.07,438.12,269.53,428.79,279.16,429.18z"/>
		<path class="st15" d="M463.64,471.89c-5.54,0.15-10.54-6.1-10.91-13.39c-0.35-6.99,3.23-11.46,9.74-11.81
			c6.68-0.37,10.26,4.1,10.63,10.93C473.51,465.04,469.15,471.74,463.64,471.89z"/>
		<path class="st15" d="M620.71,461.56c-0.42-10.66,3.46-16.57,9.65-16.11c6.74,0.51,10.27,4.57,10.51,11.49
			c0.3,8.74-4.62,15.74-11.16,15C622.33,471.12,620.72,465.66,620.71,461.56z"/>
		<path class="st15" d="M517.78,441.07c-6.6-1.44-9.67-5.73-9.48-12.32c0.19-6.33,5.73-11.77,11.02-10.6
			c6.87,1.52,8.86,6.81,8.41,13.11C527.32,437.19,523.68,440.32,517.78,441.07z"/>
		<path class="st1" d="M279.16,429.18c-9.63-0.4-16.09,8.94-25.77,8.4C259.71,422.73,263.86,421.38,279.16,429.18z"/>
		<path class="st1" d="M253.52,445.29c8.11-0.16,12.46,3.54,12.24,11.93C257.22,457.82,253.53,453.44,253.52,445.29z"/>
	</g>
</g>
</svg>
