<?xml version="1.0" encoding="utf-8"?>
<!-- Generator: Adobe Illustrator 26.3.0, SVG Export Plug-In . SVG Version: 6.00 Build 0)  -->
<svg version="1.1" id="Capa_1" xmlns="http://www.w3.org/2000/svg" xmlns:xlink="http://www.w3.org/1999/xlink" x="0px" y="0px"
	 viewBox="0 0 1000 1000" style="enable-background:new 0 0 1000 1000;" xml:space="preserve">
<style type="text/css">
	.st0{fill:#F9EFDD;}
	.st1{fill:#FCFCFC;}
	.st2{fill:#FAEFDC;}
	.st3{fill:#F8D4A5;}
	.st4{fill:#27748B;}
	.st5{fill:#1F6E89;}
	.st6{fill:#DFEEEF;}
	.st7{fill:#246C87;}
	.st8{fill:#2E3C43;}
	.st9{fill:#6BCCE9;}
	.st10{fill:#1291B9;}
	.st11{fill:#F3D969;}
	.st12{fill:#19ADD7;}
	.st13{fill:#F9D4A6;}
	.st14{fill:#16637B;}
	.st15{fill:#F4D1DF;}
	.st16{fill:#057E5A;}
	.st17{fill:#FAD7B3;}
	.st18{fill:#027E5A;}
	.st19{fill:#047358;}
	.st20{fill:#E47284;}
	.st21{fill:#046258;}
	.st22{fill:#ACD9EB;}
	.st23{fill:#EE8894;}
	.st24{fill:#16ACD4;}
	.st25{fill:#06805F;}
	.st26{fill:#69CCE9;}
	.st27{fill:#F2D1DE;}
	.st28{fill:#F08C9C;}
	.st29{fill:#E25972;}
</style>
<g>
	<g>
		<path class="st0" d="M1000,549.6c0,1.04,0,2.07,0,3.11c-4.38,9.55-14.93,4.22-21.46,8.48c-0.22,6.07,6.24,6.75,7.95,10.97
			c5.34,20.77,0.18,41.29-3.44,61.28c-17.98,99.36-63.66,184.66-133.42,257.38c-10.36,10.8-20.65,21.63-31.85,31.56
			c-4.58,4.06-8.74,9.11-15.99,7.62c-7.84-3.98-10.87-12.18-15.28-18.8c-10.23-15.39-24.89-22-42.18-25
			c-5.57-0.97-12.95,1.02-15.14-7.29c7.85-11.61,21.3-15.79,31.88-23.77c19.53-14.73,36.17-32.17,51.45-51.09
			c6.61-8.18,14.69-14.29,24.4-18.48c48.35-20.85,72.05-58,72.05-110.38c0-17.5,1.43-35.09-2.27-52.47
			c-0.97-4.55-0.68-9.27,1.58-13.59c4.16-4.97,10.96-7.38,12.65-14.89c3.36-14.89-3.15-22.05-23.75-25.05
			c-7.12-6.94-8.07-16.7-10.74-25.38c-22.24-72-66.27-128.88-121.99-177.79c-1.94-1.71-3.96-3.32-5.53-5.41
			c-6.31-12.34-9.37-25.94-16.23-38.22c-16.83-30.13-45.92-45.05-73.92-61.02c-27.34-15.59-56.62-26.82-87.73-32.97
			c-5.96-1.18-16.26-0.05-12.82-12.15c10.34-9.22,23.87-9.18,36.26-12.03c46.48-10.7,90.31-7.54,127.74,26.34
			c3.74,3.38,7.77,7.17,14.28,4.05c3.4-8.27-3.65-11.55-8.26-15.75c-31.91-29.06-70.32-35.09-111.34-30.59
			c-14.85,1.63-29.51,4.98-44.17,8.04c-15.91,3.32-29.24,9.64-35.94,25.62c-37.3-2.82-68.62,18.05-103.17,26.23
			c-39.66,9.39-80.32,13.77-119.6,24.86c-16.78,1.91-33.36,4.88-49.58,9.71c-11.53,0.98-22.9-1.99-34.64-0.61
			c-7.96,0.94-13.8-5.19-16.56-13.1c0.66-5.01,4.86-6.49,8.62-7.88c34.5-12.81,57.79-39.23,80.24-66.45
			c25.03-30.37,44.76-64.64,69.02-95.59c18-22.96,38.74-41.77,69.89-43.95c12.95-0.91,24.81,0.75,33.2,12.3
			c1.47,2.03,3.86,3.48,7.87,2.34c6.74-9.53-0.26-15.78-7.18-20.7c-13.12-9.32-28.22-9.73-43.23-6.08
			c-34.51,8.4-59.69,30.39-79.47,58.47c-23.53,33.41-45.43,68.05-72.06,99.1c-22.04,25.7-46.22,49.23-82.07,54.7
			c-17.98,2.01-35.55,5.22-50.44,16.65c-2.91,2.23-6.58,4.57-9.92,3.05c-11.57-5.29-23.1-1.17-34.64-0.73
			c-6.41-5.91-3.26-12.35-0.67-18.46c6.47-15.26,17.45-26.6,31.52-35.12c36.82-22.27,66.87-51.57,90.23-87.67
			c3.42-5.29,9.02-10.57,4.02-18.07c-8.33-2.23-10.84,4.32-14.11,9.26c-21.88,33.05-47.48,62.25-82.3,82.48
			c-29.5,17.14-46.63,43-51.97,76.74c-0.8,5.07-1.46,10.23-3.22,15.15c-1.53,3.94-4.25,7.01-6.93,10.16
			c-15.48,18.16-16.14,26.94-3.23,49.49c37.44,1.44,75.49,0.42,113.52,0.86c8.09,0.09,16.57-1.81,24.06,3.15
			c4.12,6.29-1.01,9.81-4.71,12.67c-23.42,18.11-41.55,41-59.15,64.42c-3.07,4.08-5.95,8.47-11.46,9.72
			c-7.02,0.39-11.01-4.82-15.81-8.55c-12.75-9.89-24.5-10.79-36.12,0.39c-12.39,11.92-25.53,19.93-42.97,21.62
			c-8.25,0.8-15.18,6.48-19.59,13.91c-5.39,9.07-9.78,19.33-5.02,29.28c4.65,9.73,15.49,8.06,24.7,8.76
			c16.76,1.27,33.93-3.57,50.32,3.3c2.67,3.84,1.77,7.89,0.14,11.62c-7.94,18.15-13.04,37.28-19.71,55.88
			c-18.21,13.4-31.29,30.04-38.6,52.09c-4.31,12.99-23.97,13.13-33.74,1.78c0.02-97.98,0.02-195.94,0-293.86
			c2.83-26.87,16.26-49.67,28.9-72.58c29.93-54.24,68.19-102.35,115.53-141.96c24.2-20.26,47.62-42.73,77.44-55.64
			c4.73-0.6,8.83,1.67,13.21,2.8c10.64,2.75,22.25-4.3,25.58-15.61c1.4-4.77,0.77-10.19,4.79-14.08
			c52.89-21.13,106.66-38.82,163.93-43.5c66.63-5.45,131.68,1.93,195.73,21.18C674.71,40.1,720.12,59,760.8,86.59
			c61.49,41.71,114.98,92.33,155.23,155.69c2.21,3.48,4.52,6.95,4.99,11.21c-7.11,12.07-15.96,22.82-29.94,26.46
			c-16.34,4.26-26.36,13.83-28.7,30.28c-2.56,18-9.5,32.18-27.6,38.92c-2.34,0.87-4.23,2.88-6.11,4.65
			c-6.1,5.72-9.3,12.8-6.38,20.81c3.51,9.61,12.25,9.59,20.75,9.17c41.98,0.8,83.95-1.75,125.87,1.31c1.79,0.69,3.32,1.77,4.59,3.2
			c8.24,20.88,10.05,43.15,11.78,65.07c1.9,24.07,5.48,48.16,3.82,72.44C988.42,535.83,991.03,544.11,1000,549.6z"/>
		<path class="st1" d="M225.61,77.06c-48.42,30.32-91.8,66.82-129.85,109.27c-20.08,22.4-36.31,47.96-52.67,73.29
			c-16.06,24.87-26,52.66-39.33,78.81c-2.47-3.78-1.47-8.03-1.48-12.07c-0.05-104.76-0.05-209.53,0-314.29
			C2.28,8.03,1.3,3.78,3.75,0C335.83,0,667.92,0,1000,0c0,92.12,0,184.23,0,276.35c-1.3,1.03-2.71,1.18-4.23,0.58
			c-4.62-2.72-6.43-7.81-9.76-11.63c-9.52-10.92-21.55-14.73-34.04-8.91c-11.24,5.24-21.63,4.22-32.37-0.31
			c-16.66-27.72-36.84-52.62-57.92-77.17c-14.22-16.56-31.01-29.86-46.31-44.94c-10.51-10.36-23.11-18.58-34.57-28.01
			c-38.45-31.6-83.51-51.23-129.42-68.03C617.66,25.6,582.51,16.89,546.5,12.09c-31.61-4.22-63.22-7.11-95.01-5.61
			c-18.26,0.86-36.58,3.28-54.55,6.72c-19.38,3.71-38.54,8.68-57.64,13.97c-16.31,4.52-31.66,11.22-47.53,16.66
			c-7.74,2.65-15.04,6.49-23.54,5.89c-5.33-1.78-6.26-8.03-10.56-10.63c-8.87-5.37-18.48-6.66-27.22-0.52
			c-8.61,6.05-12.39,14.6-8.33,25.37C223.72,68.17,226.35,72.19,225.61,77.06z"/>
		<path class="st1" d="M801.33,928.4c3.35,0.31,5.79-1.24,8.21-3.46c35.92-32.99,68.86-68.75,96-109.29
			c23.41-34.96,42.15-72.74,55.96-112.42c8.8-25.29,15.26-51.78,19.15-78.26c2.57-17.49,5.98-35.5,3.8-53.58
			c1.63-1.7,3.62-1.98,5.8-1.47c3.88,1.72,6.71,4.8,9.75,7.62c0,140.76,0,281.53,0,422.29c-74.49,0-148.97,0-223.46,0
			c-1.87-5.51,1.95-8.87,5.07-12.06c14.26-14.6,21.14-31.58,17.83-52.15C799.02,933.02,799.44,930.48,801.33,928.4z"/>
		<path class="st1" d="M279.97,999.83c-92.07,0-184.15,0-276.22,0c-1.11-0.96-2.15-1.99-3.1-3.11c0-37.26,0-74.52,0-111.78
			c3.25-8.43,1.45-17.2,1.49-25.79c0.23-41.02,0.02-82.04,0.2-123.06c0.02-5.43-1.96-11.31,2.09-16.26
			c10.02-2.4,10.54,6.27,12.92,11.84c15.35,35.84,35.63,68.7,59.1,99.69c4.11,21.05,16.18,36.01,35.07,45.74
			c24.04,35.24,57.8,59.3,93.61,80.81c20.69,12.43,41.9,23.93,64.53,32.67C273.86,992.2,280.42,992.48,279.97,999.83z"/>
		<path class="st2" d="M279.97,999.83c-12.83-5.94-25.69-11.81-38.48-17.84c-30.2-14.26-58.65-31.6-84.93-52.06
			c-16.51-12.85-31.67-27.59-44.84-44.12c-2.17-2.72-2.64-5.46-1.87-8.63c3.07-2.2,6.59-3,10.26-2.95
			c31.51,0.42,63.06-1.52,94.53,1.02c5.67,1.58,9.87,5.46,13.8,9.52c52.83,54.46,120.23,77.43,192.79,88.88
			c33.22,5.24,66.67,4.51,100.07,1.24c4.15-0.41,8.22-0.6,12.1,1.28c5.46,7,10.25,14.31,10.37,23.66
			C455.84,999.83,367.9,999.83,279.97,999.83z"/>
		<path class="st3" d="M1000,313.61c0,19.67,0,39.33,0,59c-8.7,11.09-21.55,11.91-33.74,12.12c-40.72,0.7-81.46,0.27-122.19,0.26
			c-8.89,0-16.7-2.18-19.85-11.43c-2.93-8.62,1.25-16.98,8.08-19.94c22.53-9.77,29.71-28.76,34.43-50.28
			c1.43-6.53,5.39-12.24,11.16-16.29c10.61-7.44,18.65-5.52,26.42,6.33c1.31,2.03,1.75,4.68,4.81,6.89
			c-2.16-1.96-3.13-3.46-3.85-5.15c-0.69-2.05-0.19-4.07-0.07-6.13c1.32-22.81,9.64-29.44,32.07-24.75
			c4.54,0.95,7.68,0.06,11.43-2.38c19.7-12.82,41.24-0.63,42.53,23.76c0.49,9.35-3.47,18.2-3.4,27.12
			C992.16,316.42,996.23,310.87,1000,313.61z"/>
		<path class="st4" d="M1000,313.61c-5.92,1.77-9.71,7.73-18.08,8.38c1.81-9.05,3.58-17.71,5.27-26.39
			c2.2-11.31,0.58-21.56-8.02-30.07c-10.56-10.44-20.24-10.34-30.47,0.59c-1.74,1.86-3.3,3.88-4.95,5.84
			c-6.93-1.31-10.19-9.58-18.51-8.12c-3.76,0.5-1.75,5.05-3.86,7.36c-1.45-1.3-2.89-2.59-4.51-4.05c-5.4,1.78-5.52,8.24-11.81,10.95
			c10.82,7.04-0.68,13.38,1.77,20.03l0.1-0.09c-6.32-1.15-5.02-8.55-9.15-11.36c-15.77-1.21-20.72,1.91-26.38,14.86
			c-5.22,11.93-7.84,24.36-8.55,36.9c-5.23,6.16-12.56,7.82-18.77,11.27c-5.45,3.02-10.83,6.02-14.66,11.07
			c-6.2,8.19-3.9,15.85,5.61,19.57c4.01,1.57,8.12,1.17,12.2,1.17c37.62,0.05,75.24-0.18,112.86,0.15
			c14.16,0.13,26.98-4.39,39.9-9.07c0,3.11,0,6.21,0,9.32c-7.81,8.46-16.74,12.68-28.17,7.47l0.19-1.35
			c-32.23-3.38-64.54-0.95-96.81-1.33c-12.17-0.14-24.55-2.18-36.61,1.46c-10.33,1.9-17.29-3.15-20.89-11.96
			c-3.67-9-0.32-17.23,6.44-23.87c8.2-8.06,18.26-13.24,29.22-17.94c1.97-10.34,3.93-20.86,6.62-31.25
			c4.04-15.57,14.38-23.78,28.72-26.49c7.36-1.39,12.41-3.89,16.24-9.81c3.52-5.46,9.12-8.05,14.65-10.77
			c7.21-1.99,14.07-0.19,20.09,2.38c19.24-11.3,32.27-11.06,45.54,0.14c5.69,4.8,7.64,11.97,11.78,17.73
			c5.44,9.93-4.23,21.31,2.99,31.07C1000,309.47,1000,311.54,1000,313.61z"/>
		<path class="st5" d="M801.33,928.4c6.74,27.53-1.05,50.07-23.24,67.65c-1.25,0.99-2.04,2.11-1.55,3.79c-8.28,0-16.55,0-24.83,0
			c-1-1.33-1.02-2.72-0.21-4.14c3.5-4,8.45-5.73,12.94-8.19c28.65-15.71,33.37-49.5,10.25-72.46
			c-11.29-11.21-23.12-20.49-40.59-17.58c-7.24,1.2-12.46-2.74-17.32-8.02c-26.03-28.3-50.07-25.03-67.1,8.89
			c-1.39,2.78-2.51,5.72-6.28,5.98c-4.64-2.26-7.76-5.7-8.54-10.97c4.72-23.33,19.28-37.11,42.25-40.02
			c24.66-3.12,42.61,5.53,52.41,25.28c0.74,4.14,3.9,3.96,6.98,3.92c5.07-0.06,10.04,0.3,15.12,1.17
			c20.78,3.59,33.78,16.87,43.9,33.99C797.58,921.19,799.4,924.83,801.33,928.4z"/>
		<path class="st1" d="M971.83,389.4c9.96-0.35,18.76-5.07,28.17-7.47c0,28.98,0,57.96,0,86.94c-4.5,7.25-4.5,14.49,0,21.74
			c0,19.67,0,39.33,0,59c-4.55-0.38-9.22,0.75-14.58-1.37c-1.98-12.78-0.09-26.1-1.02-39.26c-2.11-29.86-2.23-59.89-8.75-89.36
			C973.46,409.73,973.05,399.48,971.83,389.4z"/>
		<path class="st6" d="M9.91,720.53c-2.66,0.02-5.57,0.3-5.94,3.46c-0.48,4.07-0.22,8.23-0.23,12.36
			c-0.01,44.84,0.09,89.69-0.15,134.53c-0.02,4.69,2.88,10.44-2.95,14.07c0-290.84-0.02-581.68,0.16-872.53
			C0.81,8.35-2.32,2.88,3.75,0c0,112.81,0.01,225.63,0.01,338.44c0.06,101.62,0.12,203.23,0.19,304.85
			c2.92,2.78,3.7,6.41,4.01,10.21c1.6,18.03-0.93,36.19,1.68,54.15c3.37,7.83,10.43,4.59,16.06,5.26
			c15.46,1.83,31.56-3.74,46.55,4.01c0.77,2.03,0.29,3.7-1.4,5.05C50.42,726.44,30.04,728.78,9.91,720.53z"/>
		<path class="st5" d="M543.77,999.83c-4.63-6.47-10.69-12.27-9.98-21.25c1.2-25.89,18.19-38.3,46.65-34.1
			c4.69,2.15,9.04,4.57,8.07,10.9c-3.32,5.26-8.84,4.63-13.85,4.8c-10.24,0.34-19.63,1.86-24.12,12.91
			c-4.29,10.56,3.57,16.11,9.17,22.63c0.72,1.46,0.57,2.84-0.43,4.12C554.12,999.83,548.94,999.83,543.77,999.83z"/>
		<path class="st4" d="M559.29,999.83c-0.03-0.73-0.04-1.46-0.03-2.18c5.15-6.8,12.79-5.9,19.82-5.93
			c50.93-0.24,101.86-0.24,152.79,0c7.03,0.03,14.65-0.83,19.88,5.85c0.01,0.76,0,1.51-0.02,2.27
			C687.57,999.83,623.43,999.83,559.29,999.83z"/>
		<path class="st4" d="M990.73,571.73c-2.09-0.11-4.19-0.23-6.28-0.34c-14.38-5.77-14.38-5.77-8.81-16.99
			c8.18,0.6,16.54,3.19,24.36-1.7c0,6.21,0,12.42,0,18.63C997.01,573.87,993.92,573.87,990.73,571.73z"/>
		<path class="st6" d="M1000,307.4c-7.39,0.73-7.44-4.41-5.71-8.69c2.97-7.36,2.48-14.85,2.72-22.38c1,0.01,1.99,0.02,2.99,0.02
			C1000,286.7,1000,297.05,1000,307.4z"/>
		<path class="st7" d="M1000,490.6c-8.59-10.83-8.59-12.14,0-21.74C1000,476.11,1000,483.36,1000,490.6z"/>
		<path class="st0" d="M990.73,571.73c3.05-1.06,6.12-1.61,9.27-0.4c0,2.07,0,4.14,0,6.21C995.85,577.3,990.49,578.99,990.73,571.73
			z"/>
		<path class="st6" d="M0.64,996.73c1.74,0.32,2.75,1.39,3.1,3.11C1.07,1000.44,0.04,999.4,0.64,996.73z"/>
		<path class="st8" d="M581.04,947.52c-6.6,0.09-13.7-1.36-19.7,0.58c-12.4,4.01-23.48,10.49-23.96,26.05
			c-0.07,2.33-1.63,3.57-3.59,4.43c-28.32,2.59-56.7,4.38-85.09,2.39c-70.87-4.97-136.41-25.93-195.02-66.83
			c-13.98-9.76-24.48-23.13-35.8-35.62c1.3-8.17,8.11-6.5,13.19-6.86c9.2-0.66,18.46-0.17,27.69-0.23
			c14.17-0.09,29.05,2.51,37.65-13.85c2.6-4.94,10.17-4.24,14.82-7.48c2.25-8.92,3.34-17.37-2.06-25.33
			c-1.23-0.95-2.4-1.95-3.6-2.93c-3.11-3.76-10.38-5.58-6.15-12.85c12.2-2.19,23.67-6.15,33.55-13.98c3.22-0.95,6.52-1.11,9.85-1.01
			c27.21,5.53,55.22,7.25,81.53,17.02c1.4,0.95,2.27,2.27,2.62,3.92c-8.65,11.42-16.02,23.79-25.07,34.95
			c-7.22,2.57-15.28,1.28-22.33,4.8c-4.76,2.38-9.05,5.37-9.28,11.16c-0.27,6.5,4.23,10.09,9.46,12.72
			c9.67,4.87,18.95,0.67,28.31-1.49c16.72,2.41,32.84,7.07,48.61,12.93c2.56,0.07,5.11,0.04,7.47-1.15
			c2.74-1.59,4.83-3.82,6.43-6.53c1.6-3.06,2.45-6.38,3.66-9.59c6.5-10.91,4.22-24.34,10.21-35.4c7.76-4.58,15.03-0.74,22.38,1.34
			c28.3,8.02,56.05,18.26,86.25,17.28c27.52-0.89,46.56-14.28,55.06-41.03c2.42-7.62,6.7-11.41,14.32-11.52
			c11.97-0.18,23.64-2.4,35.29-4.8c8.08-1.66,15.51-0.1,22.24,4.33c37.04,24.34,93.95-3.98,104.32-47.44
			c2.35-9.85,5.59-18.94,13.08-25.83c7.86-7.24,8.54-17.37,11.7-26.52c1.95-3.14,5.18-3.16,8.18-2.76
			c9.34,1.25,16.16-1.52,19.14-11.1c2.08-6.7,2.62-13.3-3.03-18.58c-7.5-7.02-15.13-3.78-22.66,0.26c-2.29,1.22-4.77,1.85-7.41,1.8
			c-26.7-8.27-27.25-8.8-27.52-36.25c-0.17-17.58-5.02-33.45-15.78-47.41c-5.85-25.59-24.11-42.31-42.3-59.13
			c-3.28-29.22-1.21-58.49-1.26-87.74c-0.01-6.68,0.35-13.35-0.17-20.03c-0.57-14.98-0.27-29.96-0.08-44.93
			c0.08-6.12-0.17-12.56,5.22-17.17c14.76,8.11,25.38,20.99,36.89,32.72c27.63,28.16,51.74,59.14,69.44,94.53
			c12.9,25.8,22.87,52.87,30.29,80.81c0.43,0.97,0.71,2,0.38,2.93c-8.42,23.5-8.42,23.5,11.03,38.19
			c3.54,24.07,5.42,48.29,3.68,72.57c-1.4,19.53-3.86,38.88-14.59,56.26c-14,22.68-32.63,39.95-57.25,50.03
			c-10.87,4.45-19.63,10.61-26.94,19.77c-18.79,23.53-40.23,44.32-65.68,60.68c-6.07,3.9-12.21,7.7-19.11,10.01
			c-2.71-2.3-5.92-4.22-8.06-6.96c-20.79-26.66-77.28-16.64-82.52,18.45c-0.21,1.42-1.39,2.7-2.12,4.05
			c-7.15,6.79-17.96,3.16-25.65,9.63c-10.54,8.88-19.63,18.18-22.6,32.26C587.61,940.61,588.65,947.08,581.04,947.52z"/>
		<path class="st9" d="M761.38,360.11c-0.1,20.81,1.13,41.63-0.56,62.42c-2.46,19.19-12.65,34.68-24.19,49.33
			c-33.04,41.89-75.97,68.65-126.5,85.21c-35.37,11.59-71.68,16.92-108.15,17.15c-68.89,0.43-135.95-10.34-196.23-47.06
			c-34.94-21.29-59.83-51.93-78.33-87.96c-3.29-6.4-7.1-12.59-9.62-19.42c-2.02-17.01-2.92-34,0.47-50.93
			c3.49-6.67,10.05-6.53,16.03-6.46c23.71,0.27,41.8-9.62,56.05-28.39c6.88-9.06-0.18-16.43-0.71-24.55
			c-2.19-13,7.38-19.31,15.05-26.91c5.44-5.39,14.03-6.33,18.14-13.38c27.2-8.57,55.4-12.37,83.29-17.71
			c19.47-3.73,38.85-7.97,58.16-12.5c5.38-1.26,11.19-3.32,15.31-6.78c12.27-10.33,26.15-13.17,41.61-12.03
			c8.71,0.64,17.49,0.21,26.24,0.26c6.71-4.52,14.14-3.3,21.49-2.71c-0.01,2.72,0.38,5.2,3.77,5.61
			c34.61,4.17,66.08,17.44,96.48,33.63c20.82,11.09,41.79,22.61,58.69,39c14.23,13.79,24.48,31.3,30.03,50.89
			C759.14,351.22,760.22,355.67,761.38,360.11z"/>
		<path class="st8" d="M220.96,366.18c0.17,18.71,0.33,37.42,0.5,56.13c3.71,8.18,4.74,16.86,4.5,25.71
			c-0.8,29.38,1.92,58.82-1.55,88.13c-15.78,10.73-19.56,28.5-26.02,44.72c-2.06,2.67-4.7,4.41-8.05,4.99
			c-18.13-4.36-32.42,5.41-47.35,12.91c-8.44,0.79-14.06-5.43-21.01-8.37c-9.03-3.82-18.42-6.16-28.36-5.42
			c-7.02-0.57-14.45,5.18-21.07-1.38c2.79-20.39,11.23-38.91,19.12-57.6c1-2.36,2.39-4.45,1.78-7.14c5.16-5.84,12.2-4.53,18.7-4.64
			c16.93-0.29,33.87,0.24,50.79-0.23c14.37-0.4,18.55-5.67,15.02-19.47c-4.1-16-11.93-29.29-28.44-35.84
			c-4.51-1.79-12.14-2.24-9.17-10.88c19.58-31.87,44.57-58.86,73.88-81.95C218.82,361.7,219.39,361.72,220.96,366.18z"/>
		<path class="st10" d="M714.01,93.35c4.36,2.82,4.06,6.38,4.6,9.2c1.85,9.6-2.26,14.88-12.07,14.76
			c-34.03-0.43-66.39,7.39-98.06,18.96c-22.97,8.39-44.34,19.9-63.62,34.81c-41.01,31.72-88.04,43.63-138.87,43.69
			c-6.18,0.01-12.21-0.51-18.26-2.65c-15.65-5.53-22.62-19.4-15.82-34.14c5.76-12.48,15.64-21.91,26.23-30.17
			c7.09-5.53,11.65-1.75,15.63,12.25c-7.01,10.48-24.07,15.28-21.05,33.03c9.67,4.36,19.62,2.88,29.12,2.02
			c40.1-3.66,77.17-14.25,110.03-40.04c32.28-25.33,69.87-41.59,110.44-49.86c12.35-2.52,23.3-9.37,36.17-10.69
			C690.81,93.25,702.99,92.6,714.01,93.35z"/>
		<path class="st10" d="M208.41,252.43c32.87-7.48,56.66-28.54,77.95-52.92c25.85-29.6,47.4-62.52,69.36-94.91
			c18.25-26.9,40.25-47.88,69.83-60.76c16.51-7.19,33.72-9.19,51.28-3.53c7.58,2.44,13.97,6.59,18.59,13.18
			c7.28,10.38,6.25,15.14-5.06,23.94c-5.68-0.01-7.57-4.59-9.88-8.52c-5.03-8.57-12.63-11.1-22.21-11.1
			c-17.24,0-32.04,6.15-46.09,15.54c-20.3,13.56-32.62,34.07-46.43,53.11c-22.7,31.29-43.09,64.29-69.67,92.66
			c-20.28,21.66-42.2,40.85-72.12,48.02C212.16,269.24,207.42,263.87,208.41,252.43z"/>
		<path class="st5" d="M208.41,252.43c2.53,7.71,7.11,13.25,15.55,14.69c1.74,5.92,8.99,6.42,11.83,12.92
			c12.4-4.12,24.99-2.05,37.57,0.29c11.74,5.11,18.29,13.82,18.59,26.86c1.97,5.27,4.52,10.4,5.76,15.84
			c1.57,6.86,1.18,13.43-7.27,16.31c-2.32,0.79-5.51,2.24-6.2,4.14c-7.88,21.83-27.9,19.09-44.8,22.22
			c-5.99,1.11-12.31,0.38-18.49,0.49c-2.05-4.15-4.53,0.88-6.73-0.31c-4.4-4.21-9.79-1.81-14.63-1.85
			c-37.58-0.26-75.16-0.1-112.74-0.27c-14.23-0.07-16.13-1.84-21-15.25c-5.66-15.58-3.68-29.5,9.04-40.72
			c4.3-3.79,6.93-8.72,10.84-12.68c11.05-3.92,14.28-17.78,26.2-20.59c12.33-7.65,24.98-9.27,37.88-1.06
			C166.63,257.46,186.72,252.62,208.41,252.43z"/>
		<path class="st10" d="M111.93,274.5c-4.1,6.94-13.59,10.03-12.75,20.59c-5.3,0-9.37,0-13.45,0c0.74-35.17,13.64-65.05,43.55-84.04
			c32.71-20.76,60.77-45.66,83.76-76.7c4.95-6.69,8.35-14.18,13.07-20.94c4.04-5.79,9.04-7,14.63-4.03
			c6.21,3.29,6.3,8.75,3.07,14.57c-11.58,20.88-26.54,39.1-42.87,56.43c-16.8,17.83-36.27,31.97-57.11,44.5
			c-12.71,7.64-22.01,18.36-28.37,31.75C112.75,262.34,110.83,268.09,111.93,274.5z"/>
		<path class="st10" d="M568.93,217.68c-6.18,8.68-14.35,1.66-21.49,2.71c-1.86-11.89,4.22-18.29,14.79-21.87
			c31.94-10.83,64.63-16.29,98.44-15.1c17.74,0.62,34.59,4.22,50.55,12.03c14.02,6.86,25.85,16.82,37.42,26.99
			c7.16,6.3,7.45,12.34,2.38,17.19c-4.46,4.27-11.78,3.71-17.67-2.27c-15.95-16.19-34.74-27.24-56.92-32.12
			c-20.95-4.61-42.06-2.49-62.82,0.96C598.49,208.73,583.33,211.95,568.93,217.68z"/>
		<path class="st4" d="M140.35,447.82c0.22,2.68,0.87,4.57,4.1,5.47c25.1,6.94,40.13,27.37,39.1,52.74
			c-0.44,10.9-1.51,12.2-12.77,12.3c-22.17,0.21-44.35,0.08-66.53,0.14c-3.61,0.01-7.21,0.26-10.82,0.4c-18,0.05-36,0.07-54.01,0.17
			c-5.7,0.03-10.99-0.66-16.32-3.39c-8.59-4.4-11.38-10.83-10.34-20.09c2.64-23.37,16.48-37.16,40.26-38.51
			c7.76-0.44,13.87-3.29,19.3-8.26c3.41-3.12,6.38-6.72,9.78-9.86c15.31-14.14,32.15-13.44,46.48,0.37
			C132.05,442.64,133.63,448.92,140.35,447.82z"/>
		<path class="st11" d="M909.42,609.29c-9.55,0.2-17.46-3.61-20.46-12.6c-2.98-8.96-1.64-18.07,6.52-24.8
			c1.11-0.92,1.7-2.46,2.53-3.72c12.56-3.32,19.16-1.79,24,5.53c5.09,7.7,4.55,23.01-0.51,30.44
			C918.4,608.7,913.8,608.42,909.42,609.29z"/>
		<path class="st4" d="M72.54,583.6c7.41,2.02,13.81-4.01,21.14-2.66c2.13,2.31,9.97,0.61,5.38,7.66c-3.3,2.64-7.23,3.93-11.24,4.85
			c-21.47,4.92-32.83,19.72-39.1,39.63C40.98,657.62,28.14,663,3.82,652c0.04-2.9,0.08-5.81,0.12-8.71c8.68,0,17.36,0,27.55,0
			C36.46,617.06,48.46,595.94,72.54,583.6z"/>
		<path class="st7" d="M225.61,77.06c-1.95-2.98-4.28-5.78-5.79-8.97c-6.12-12.96-1.55-27.43,10.62-34.36
			c12.39-7.05,26.44-3.39,34.52,9.11c1.37,2.11,2.2,4.57,3.28,6.87c-1.36,6.76,0.74,13.91-4.21,20.32
			C253.71,83.44,243.55,85.61,225.61,77.06z"/>
		<path class="st12" d="M291.96,307.18c-2.68-11.39-13.04-17.46-18.59-26.86c15.53-7.96,32.58-9.22,49.46-11.17
			c4.46,2.94,1.56,4.95-1.09,6.4c-8.95,4.88-16.73,11.14-23.96,18.31C293.89,297.72,291.63,301.74,291.96,307.18z"/>
		<path class="st4" d="M942.9,457.84c-7.24,0.29-14.38-7.02-14.39-14.75c-0.02-7.79,6.54-14.3,14.6-14.48
			c7.04-0.15,13.31,6.16,13.57,13.66C956.93,450.03,950.28,457.55,942.9,457.84z"/>
		<path class="st5" d="M284.6,121.14c6.86,0.21,13.28,7.04,13.3,14.17c0.03,7.23-6.35,13.58-13.63,13.58
			c-8.43,0-14.13-6.18-13.64-14.77C271.08,126.33,276.91,120.91,284.6,121.14z"/>
		<path class="st4" d="M767.35,167.83c-7.26-0.32-15.12-8.44-14.76-15.25c0.42-7.98,8.84-15.54,16.86-15.14
			c7.2,0.36,13.8,8.36,13.39,16.25C782.43,161.57,775.19,168.18,767.35,167.83z"/>
		<path class="st4" d="M810.91,853.95c0.21,8.8-3.35,12.74-11.55,12.78c-7.18,0.04-12.93-5.18-13.34-12.1
			c-0.45-7.56,5.58-13.78,13.31-13.73C807.09,840.95,810.7,845.02,810.91,853.95z"/>
		<path class="st5" d="M838.6,388.18c1.52-3.78,4.84-3.16,7.85-3.16c39.22-0.01,78.43-0.02,117.65,0c2.99,0,6.34-0.74,7.92,3.02
			c-15.28,2.24-30.66,1.01-45.97,0.94C896.9,388.85,867.73,390.13,838.6,388.18z"/>
		<path class="st2" d="M9.91,720.53c20.73-0.05,41.47-0.09,62.2-0.14c3.92-1.2,5.92,1.59,7.25,4.21
			c10.05,19.79,25.16,35.19,41.92,49.23c2.82,2.36,5.23,5.05,4.99,9.14c-22.69,10.45-38.28,28.2-50.53,49.37
			c-1.97-0.34-4.38,0.24-5.67-1.71C46.95,795.62,22.11,761.53,9.91,720.53z"/>
		<path class="st7" d="M75.75,832.34c3.84-6.48,4.58-14.14,8.86-20.65c9.4-14.28,21.14-24.48,38.57-27.03
			c1.34-0.2,2.52-1.53,3.77-2.33c14.53,0.92,26.05-5.43,36.21-15.08c16.11-7.89,34.42-0.25,50.66-7.27c3.2-0.21,6.37-0.04,9.52,0.56
			c6.07,1.47,11.57,4.28,16.93,7.38c9.99,6.72,14.22,17.2,18.08,28.91c6.68-0.08,12.67-3.56,19.16-4.18
			c11.2,0.98,19.57,5.27,20.88,17.83c0.75,5.43,8.09,4.58,9.19,9.67c-7.25,5.15-14.2,3.5-19.35-2.58
			c-8.92-10.55-18.35-9.65-28.84-3.23c-3.08,1.88-6.39,3.47-9.97,4.19c-11.04,2.24-17.4-4.36-13.34-14.95
			c2.65-6.91,4.74-12.83-2.08-17.91c-7.37-5.49-14.59-12.31-25.07-7.27c-2.79,1.34-5.54,3.8-8.57,3.23
			c-19.37-3.67-35.34,1.61-48.66,16.39c-3.61,4.01-9.84,2.38-14.92,1.61c-17.64-2.67-29.87,5.46-39.12,19.43
			c-12.19,18.4-3.89,39.32,17.61,44.66c5.57,1.38,11.26,1.4,16.95,1.4c43.92,0.03,87.84-0.05,131.76,0.06
			c10.24,0.03,20.13,0.17,22.46-13.16c0.35-2.02,1.78-4.64,3.57-4.76c18.19-1.24,14.98-16.02,17.49-27.19
			c5.8-1.32,7.19,3.36,8.44,6.99c2.58,7.47,1.29,15.34,0.9,23.02c-0.2,3.91-3.16,6.3-7.27,6.75c-3.54,0.39-7.26-0.56-11.54,2.07
			c-2.57,14.69-13.52,17.32-27.15,16.78c-14.44-0.58-28.93-0.16-43.39-0.01c-3.39,0.03-7.41-1.42-9.61,2.86
			c-29.33-0.14-58.67-0.23-88-0.46c-6.68-0.05-13.35-0.58-20.03-0.89C87.18,870.84,76.19,855.61,75.75,832.34z"/>
		<path class="st4" d="M906.83,298.14c1.79-0.05,2.84,0.97,2.9,2.6c0.03,0.82-0.77,1.67-1.2,2.51c-2.19-1.23-1.61-3.3-1.59-5.21
			L906.83,298.14z"/>
		<path class="st13" d="M751.74,997.56c-64.16-0.72-128.32-1.23-192.48,0.09c-11.09-5.34-16.11-12.15-15.02-20.4
			c1.47-11.21,9.74-19.73,21.45-20.81c7.09-0.66,14.32,0.15,21.48,0.3c-0.26-19.63,2.79-37.72,21.93-48.65
			c10.65-6.08,21.59-9.63,33.81-5.2c2.43-0.83,2.3-3.02,2.75-4.98c4.05-17.56,15.72-27.87,32.68-31.18
			c17.47-3.41,31.23,3.96,41.09,18.62c1.71,2.54,3.21,5.22,4.58,7.47c4.61,1.88,8.7,0.68,12.74,0.16
			c11.13-1.42,21.12-0.11,29.19,9.05c3.68,4.17,8.83,7.02,13.16,10.65c23.84,19.99,17.97,64.58-11.69,78.31
			C762.27,993.35,756.97,995.38,751.74,997.56z"/>
		<path class="st14" d="M642.9,902.88c-0.74,2.48-2.52,2.72-4.76,2.41c-26.62-3.6-46.48,17.89-47.79,40.88
			c-0.21,3.64,2.57,8.49-3.19,10.56c1.64-5.52-4.27-6.01-6.12-9.21c2.54-1.43,2.82-3.79,3.16-6.46
			c3.8-30.01,22.74-46.83,52.62-46.92C637.56,897.96,644.28,897.6,642.9,902.88z"/>
		<path class="st15" d="M3.82,652c10.29,0.12,20.58,0.29,30.87,0.31c1.44,0,2.88-0.73,5.31-1.39c4.82-35.16,20.67-60.83,59.97-64.2
			c21.63-2.11,36.07,7.15,44.61,29.14c14.62,2.31,19.65,12.04,17.03,25.91c4.73,1.95,8.13,0.33,11.34-1.13
			c13.17-5.99,23.85-4.61,31.18,9.3c3.12,5.93,9.74,7.19,15.24,9.86c10.48,5.08,12.49,12.51,6.82,22.74
			c-8.89,16.03-17.91,28.62-40.65,24.23c-12.95-2.5-28.81-6.15-41.13,5.56c-1.56,1.03-3.21,1.75-5.01,2.24
			c-42.38,2.82-84.69-1.58-127.03-0.55c-3.19,0.08-6.1-0.92-8.57-3.03C3.8,691.32,3.81,671.66,3.82,652z"/>
		<path class="st8" d="M162.26,770.21c-15.03,18.21-17.11,18.92-35.3,12.12c-22.97-16.49-40.99-37.36-54.84-61.93
			c0.08-0.94,0.01-1.88-0.21-2.8c8.77-6.47,18.81-2.8,28.24-3.26c12.78-0.62,25.62-0.22,38.41-0.11
			c13.02-0.54,18.59,12.8,29.65,15.94c2.92,1.42,5.67,3.07,7.47,5.92C176.84,749.67,168.23,759.42,162.26,770.21z"/>
		<path class="st5" d="M143.31,717.1c-23.8,0.17-47.61,0.33-71.41,0.5c-19.76-0.01-39.52-0.01-59.28-0.03
			c-4.55-0.01-9.66,0.66-8.84-6.58c40.61-0.14,81.23-0.26,121.84-0.45c5.63-0.03,11.32,0.71,16.87-0.96
			C145.24,711.81,145.28,714.34,143.31,717.1z"/>
		<path class="st16" d="M801.48,586.78c14.33,10.2,16.04,26.27,18.28,41.56c1.46,9.97,0.28,20.33,0.28,30.46
			c8.71,4.15,16.86,8.04,25.02,11.93c0.02,10.77,6.46,20.32,5.95,31.19c1.43,13.13-1.77,24.37-12.67,32.85
			c-5,3.9-8.07,9.33-8.94,15.7c-4.57,33.63-26.99,51.92-56.29,62.5c-19.4,7-39.22,5.7-56.8-7.67c-3.99-3.03-8.84-5.71-14.37-3.87
			c-15.23,5.07-30.88,6.75-46.92,5.8c-0.93,1.62-2.14,2.83-2.32,4.18c-3.45,26.88-27.37,47.65-54.19,48.94
			c-32.47,1.56-62.39-8.55-92.67-17.62c-7.27-2.18-14.3-6.07-22.36-3.99c-1.36,0.26-2.47-0.16-3.34-1.24
			c-1.37-2.15-2.27-4.57-3.65-6.72c-1.2-1.53-2.48-2.99-3.82-4.41c-2.33-2.55-4.79-5.02-5.21-8.7c-0.22-2.56,1.62-4.82,0.93-8.17
			c-14.21-0.39-27.49,12.05-42.36,4.05c-27.98-5.21-55.96-10.42-83.95-15.64c-6.18-6.98-3.75-15.53-4.08-23.49
			c-0.64-15.54-3.71-30.25-13.02-43.11c-1.24-0.99-2.37-2.09-3.44-3.26c-1.62-1.82-2.89-3.84-3.62-6.18
			c-0.82-4.11-0.82-8.03,2.84-10.98c18.9,2.96,21.44,21.55,30.79,33.46c60.57-40.99,74.31-40.23,128.02,6.67
			c5.15,0.96,8.56-2.71,12.44-5.06c33.03-19.95,68.36-26.2,105.66-15.92c11.69,3.22,16.74-0.15,21.47-10.31
			c14.69-31.58,38.87-51.73,73.73-57.76c9.62-1.66,19.23-2.39,20.96,11.17c-0.17,1.43-0.64,2.8-1.31,4.07
			c-1.19,1.62-2.59,3.1-3.82,4.69c-0.6,1.1-1.22,2.21-1.72,3.36c-1.44,3.85-0.41,7.44,1.16,10.99c1.55,3.98,3.18,7.94,1.15,12.24
			c-7.31,12.59-4.47,20.33,10.43,29.25c7.32,4.38,17.23,4.78,21.5,13.9c0.15,12.25,0.03,12.7-7.05,27.88
			c-0.84,1.89,3.06,1.28,1.04,0.84c-0.74-0.16-1.09-0.71-0.62-1.29c7.23-8.87,4.35-22.37,13.82-30.23c1.46-0.62,2.97-1.01,4.53-1.24
			c19.72-1,39.75-0.14,57.94-9.93c17.64-11.63,21.03-22.54,12.72-41.22c-9.36-9.49-16.42-20.13-19.78-33.37
			c-3.07-12.11-12.15-19.48-23.2-24.55c-3.37-2.54-7.23-5.86-5.77-10C780.47,612.65,786.26,596.64,801.48,586.78z"/>
		<path class="st17" d="M220.53,540.15c0.19-27.39,0.37-54.78,0.57-82.16c0.09-11.89,0.23-23.78,0.35-35.67
			c9.31,5.54,9.26,16.68,14.46,24.78c10.06,15.65,21.25,30.05,33.37,44.18c23.28,27.15,53.47,42.53,85.7,54.91
			c38.64,14.84,78.8,21.17,120.23,23.01c20.1,0.89,39.87-0.6,59.73-1.37c15.75-0.61,31.86-2.65,46.98-6.95
			c36.01-10.24,72.01-21.43,102.43-44.47c32.23-24.42,59.74-53.01,74.29-91.91c0.3-0.81,1.44-1.32,2.18-1.96
			c0.14,31.51,0.24,63.01,0.43,94.52c0.03,5.66,0.4,11.32,0.62,16.98c3.9,5.74,3.71,11.76,1.21,17.93
			c-46.26,46.96-102.58,76.42-166.21,90.67c-85.62,19.17-170.96,17.42-254.69-11.42c-39.98-13.77-76.05-34.47-107.26-63.21
			c-4.95-4.56-11.21-7.41-15.62-12.6C216.71,550.06,216.99,544.97,220.53,540.15z"/>
		<path class="st18" d="M320.43,710.91c-0.03,4.2-0.07,8.4-0.1,12.6c1.09,0.97,2.01,2.11,3.1,3.08l-0.01-0.01
			c11.6,16.93,16.41,35.75,15.19,56.1c-0.33,5.6-1.7,11.1-5.88,15.38c-8.29,12.85-21.1,13.23-34.33,12.43
			c-5.6-7.34-10.92-15.08-21.55-15.36c-10.26-0.62-15-9.71-22.4-14.72c-5.01-3.39-9.36-7.75-14.99-10.24
			c-5.94-0.06-10.18-4.29-15.35-6.24c-2.2-7.33,4.64-8.35,8.28-10.96c10.73-7.71,17.95-17.78,21.88-30.66
			c-7.19,19.78-21.77,32.21-39.52,41.54c-8.2,1.41-8.2,1.41-15.87,6.47c-11.78-6.2-24.2-2.47-36.63-0.09
			c-1.19-6.41,2.59-11.3,4.89-16.72c2.49-5.86,7.06-10.84,7.47-17.58c11.72-16.49,30.16-20.34,47.96-24.99
			c7.42-1.94,15.08-2.98,22.45-5.33c20.82-6.63,24.63-5.08,38.78,10.81c10.38,11.65,15.6,24.96,16.23,40.4
			c1.52-15.42-3.09-28.44-14.34-39.07c-3.72-3.52-7.14-7.44-8.42-12.7c3.15-14.74,4.93-15.25,23.98-6.94
			c1.4,0.55,2.71,1.29,3.94,2.14c3.52,4.63,8.44,7.18,13.78,9.12C319.46,709.88,319.94,710.4,320.43,710.91z"/>
		<path class="st19" d="M760.07,552.58c0.6-6.18,1.2-12.37,1.81-18.55c4.36-0.42,7.65,1.19,11.06,4.12
			c9.07,7.79,15.66,17.73,22.75,27c4.19,5.48,4.02,14.32,5.8,21.64C792.49,600.71,784,614.93,777.1,629
			c-0.06,4.88,5.28,4.07,5.63,7.56c-7.6,5.93-15.22,5.47-22.88,0.1C753.89,608.63,753.36,580.6,760.07,552.58z"/>
		<path class="st20" d="M469.25,818.64c2.32,2.13,5.44,3.54,6.3,6.99c0.85,1.2,1.93,2.21,2.69,3.48c4,2.01,3.51,5.74,3.55,9.27
			c-1.71,1.8-3.85,2.34-6.24,2.17c-14.78-8.82-30.07-10.36-45.53-2.23c-11.26,5.93-11.8,14.59-1.48,24.28
			c8.01-8.04,12.36-26.37,29.03-14.33c10.4,7.51-1.58,14.28-3.25,21.79c4.45,6.65,13.86,2.74,18.81,8.39
			c0.83,2.26,1.04,4.45-0.76,6.4c-1.06,3.21-3.17,5.34-6.46,6.23c-1.43,2.06-4.4,1.19-5.91,3.1c-10.84,2.27-17.5-8.54-26.55-9.12
			c-9.4-0.6-18.23-0.12-25.41-7.28c-8.37-8.58-13.6-17.86-6.78-29.89c6.1-12.41,11.36-25.47,24.75-32.28
			C440.43,816.54,455.03,814.92,469.25,818.64z"/>
		<path class="st11" d="M851,701.93c-2.04-4.08-3.88-8.28-6.15-12.22c-3.72-6.44-3.29-12.68,0.21-18.97
			c2.47-1.81,4.79-3.88,7.43-5.37c10.02-5.68,16.57-5.18,23.86,1.54c6.28,5.79,8.16,15.43,4.37,24.05
			c-1.83,4.16-4.2,8.09-6.58,12.63C866.38,707.07,858.63,705.76,851,701.93z"/>
		<path class="st21" d="M401.27,847.9c-1.88,10.9,4.63,19.9,6.78,29.89c-17.34,13.44-33.79,9.17-43.78-11.49
			C370.06,847.15,385.6,847.41,401.27,847.9z"/>
		<path class="st22" d="M874.74,645.55c-9.48,0.13-17.48-7.93-17.59-17.72c-0.12-10.41,8.28-19.46,17.91-19.3
			c9.23,0.15,17.57,8.4,18.05,17.87C893.61,636.02,884.6,645.41,874.74,645.55z"/>
		<path class="st22" d="M826.18,520.64c-7.63,4.08-10.99-0.91-14.84-5.67c-4.51,4.1-8.15,10.47-15.85,5.33c0-9.27,0-18.86,0-29.33
			c10.17,0,19.69,0,30.19,0C827.16,501.09,826.7,511.11,826.18,520.64z"/>
		<path class="st21" d="M332.72,798.06c0-1.53-0.36-3.17,0.05-4.59c6.4-21.69,0.62-41.5-9.02-60.82c-0.83-1.66-0.26-4.03-0.34-6.07
			c7.93,2.04,10.01,8.67,12.51,15.31c5.89,15.65,7.04,31.82,6.15,48.3c-0.14,2.57,0,5.16,0.01,7.74
			C338.96,797.97,335.84,798.01,332.72,798.06z"/>
		<path class="st21" d="M469.25,818.64c-6.88,0.93-14.29-1.15-19.14,4.67c-8.72-3.87-15.55-8.7-24.09-7.7
			c-0.07-0.69-0.07-1.37,0-2.06c6.86-5.32,15.33,2.74,22.66-3.24c5.92-4.83,14.33-4.14,21.61-5.98c2.35-0.59,5.11-0.46,7.25,1.54
			C479.82,813.34,468.55,812.14,469.25,818.64z"/>
		<path class="st23" d="M475.39,838.36c2.13,0.01,4.27,0.02,6.4,0.02c0.56,0.15,1.12,0.27,1.69,0.37
			c3.52,13.65-0.43,25.88-7.14,37.59c-1.44-0.44-2.63-1.26-3.6-2.42c-1.78-2.53-2.89-5.34-3.36-8.4
			C469.81,856.12,469.71,846.59,475.39,838.36z"/>
		<path class="st23" d="M472.37,884.86c-0.01-2.06-0.02-4.11-0.03-6.17c-0.76-0.7-1.07-1.45-0.92-2.25
			c0.15-0.82,0.33-1.23,0.55-1.24c1.27-0.82,2.43-0.64,3.49,0.4l0.88,0.74C475.59,879.45,476.47,883.31,472.37,884.86z"/>
		<path class="st23" d="M460,894.19c0.89-3.1,3.49-2.93,5.91-3.1C464.92,893.99,462.66,894.47,460,894.19z"/>
		<path class="st12" d="M550.34,502.65c-14.87,3.75-29.83,6.3-45.28,6.7c-29.31,0.76-58.6-0.01-87.06-6.85
			c-12.32-2.96-24.25-8.69-36.55-12.74c-12.56-4.13-24.59-10.21-36.33-16.43c-19.94-10.56-35.82-25.88-46.69-45.63
			c-15.71-28.54-14.11-58.63,2.04-85.1c19.01-31.14,47.02-54.07,82.85-64.91c18.47-5.59,37.63-8.4,56.8-11.25
			c11.5-1.71,23.49-0.7,34.67-5.07c6.73-2.63,12.95,1.9,19.49,2.51c1.6,2.05,2.32,4.35,1.97,6.96c-2.23,7.35-8.48,9.91-14.76,12.44
			c-11.88,3.66-24.14,5.25-36.43,6.61c-11.95-0.59-23.64-0.05-33.69,7.71c-25.24,9.13-47.91,22.83-64.29,44.05
			c-27.77,35.96-27,83.15,17.35,111.04c33.66,21.16,71.52,28.55,110.65,30.63c17.6,0.94,35.03-0.74,52.36-3.79
			C538.37,483.96,549.29,488.42,550.34,502.65z"/>
		<path class="st24" d="M662.15,338.29c5.77,2.64,5.92,7.71,5.86,13.06c-0.13,10.66-0.04,21.33-0.04,34
			c10.13-8.12,18.07-14.91,18.82-27c0.15-2.44,2-4.73,2.44-7.19c0.88-4.96,2.6-9.68,8.32-9.18c6.21,0.54,10.19,5,10.66,11.27
			c0.77,10.26,0.97,20.77-4.02,30.11c-12.6,23.58-27.16,45.94-47.4,63.73c-19.29,16.95-40.61,30.82-65.91,37.41
			c-1.25,0.95-2.61,1.09-4.06,0.54c-1.11-1-2-2.16-2.68-3.49c-2.53-7.7-5.94-15.25-4.44-23.73c3.7-5.83,9.91-6.65,15.85-8.02
			c17.69-1.71,34.63-7.35,49.62-15.94c11.77-6.75,16.92-21.1,21.9-33.62c2.58-6.47-7.27-13.08-16.37-10.33
			c-19.01,5.75-37.82,12.33-53.89,24.69c-3.22,2.48-2.9,6.39-3.85,9.78c-1.92,6.84-2.34,14.44-9.4,18.73
			c-11.26,3.98-22.8,6.97-34.3,10.13c-4.96,1.13-10,1.36-15.05,1.48c-28.03,6.17-55.7,2.83-82.75-4.73
			c-48.18-13.46-60.09-55.55-27.42-94.58c3.38-1.51,6.77-1.55,10.14-0.03c1.45,0.9,2.45,2.17,3.01,3.78
			c1.61,6.95-3.06,11.5-6.38,16.59c-9.29,14.25-8.01,22.5,5.34,32.83c15.71,12.16,34.12,15.95,53.44,16.75
			c16.19,3.44,32.1,2.42,47.76-2.83c6.58-1.59,13.37-1.02,20.02-1.86c17.26-2.17,20.78-5.75,22.75-23.05
			c0.29-2.58,0.68-5.12,1.74-7.5c2.97-4.93,7.1-2.46,10.79-1.43c8.09,2.26,13.95,0.2,17.04-8.01c2.73-4.71,7.41-6.68,12.08-8.71
			c12.42-5.4,21.95-14.14,29.72-25.15C654.09,343.11,655.07,336.67,662.15,338.29z"/>
		<path class="st23" d="M482.61,280.1c3.77-3.59,9.51-4.89,11.83-10.17c1.7-1.56,0.82-4.95,3.92-5.52
			c26.21-9.26,52.52-7.33,78.72-0.22c24.24,6.58,42.34,17.68,41.66,52.45c-1.99,23.3-4.25,46.5-22.98,63.77
			c-3.68,3.58-8.49,4.93-13.11,6.68c-16.73,5.33-33.63,9.65-51.43,8.15c-15.91-1.34-30.05-6.19-40.6-19.21
			c-5.54-6.83-13.98-10.46-20.3-16.54c-9.99-8.35-12.42-19.4-11.28-31.71c0.22-7.94,2.9-15.11,6.98-21.82
			c0.75-1.2,1.64-2.33,2.56-3.4c1.25-1.63,2.33-3.37,3.11-5.29C474.06,290.75,475.38,283.53,482.61,280.1z"/>
		<path class="st25" d="M592.88,379.02c12.02-12.8,20.01-27.23,18.9-45.54c-0.4-6.62,4.82-11.14,6.95-16.84
			c13.13-5.83,28.12-7.59,39.62-20c4.49,8.28,8.26,15.21,11.54,21.24c0.55,8.8-8.22,12.72-7.75,20.4c-6.65,5.8-8,15.56-14.84,20.92
			c-8.74,6.85-16.27,15.73-28.17,17.94c-2.58,0.48-6.16,1.48-7.12,5.12C604.75,386.39,597.81,388.64,592.88,379.02z"/>
		<path class="st19" d="M550.34,502.65c-5.3-9.19-14.13-14.7-22.04-21.17c-5.16,0.64-4.98-3.04-5.19-6.41
			c3.6-8.98,10.67-13.17,19.65-10.7c15.8,4.34,32.26,7.73,44.69,19.86l-0.05-0.05c0.84,1.07,0.77,2.09-0.2,3.04
			c-4.6,2.1-9.02,4.89-13.84,6.13C565.21,495.44,557.73,498.86,550.34,502.65z"/>
		<path class="st26" d="M498.36,264.4c-0.95,2.09-0.88,4.91-3.92,5.52c-0.05-2.01-0.1-4.02-0.16-6.03
			C495.64,264.06,497,264.23,498.36,264.4z"/>
		<path class="st25" d="M587.2,487.21c-0.01-1.02,0.06-2.03,0.2-3.04c1.16,0.11,2.32,0.21,3.48,0.32
			C590.24,486.2,589.12,487.24,587.2,487.21z"/>
		<path class="st14" d="M143.24,707.95c1.66-5.79,6.32-6.15,11.09-5.91c14.36,0.73,28.83-1.93,43.11,1.95
			c5.93,1.61,10.75-0.46,14.15-6.25c3.62-6.17,8.08-11.85,12.2-17.72c6.12-8.7,5.33-12.16-4.06-16.65
			c-2.28-1.09-4.77-2.23-7.22-2.39c-7.16-0.48-10.59-4.43-13.35-10.82c-4.74-10.98-7.57-11.4-19.09-7.82
			c-8.54,2.65-16.29,9.83-27.07,5.1c1.89-6.94,8.37-13.08,5.17-21.07c-5.28-6.67-13.13-4.88-19.41-5.78
			c-4.15-5.17,3.29-9.89-1.27-14.98c-4.93-5.5-10.77-9.26-17.06-12.61c-6.4-3.41-13.55-4.48-20.46-6.29
			c-2.09-1.92-4.19-3.85-6.28-5.77c13.67-1.15,26.05,2.03,37.25,10.22c3.61,2.64,7.62,5.19,12.45,5.4
			c7.02,14.38,27.15,16.24,30.55,32.79c6.04,2.03,11.04-0.31,16.05,0.25c6.49,0.1,11.65,2.93,15.63,7.9
			c4.07,5.08,9.53,7.2,15.78,7.84c5.04,0.93,8.96,3.59,12.01,7.64c9.23,15.8,8.77,22.82-2.79,36.76c-3.87,4.66-7.96,9.12-10.5,14.73
			c-7.24,10.07-17.4,11.4-28.63,9.59c-10.71-2-21.54-1.24-32.32-1.5C153.44,712.44,147.82,712.01,143.24,707.95z"/>
		<path class="st19" d="M221.58,648.8c-8.42,1.39-15.53-0.47-19.08-8.97c-2.51-6-7.13-6.7-12.54-6.4c-1.89-2.2-2.18-4.73-1.51-7.45
			c4.16-7.4,3.41-15.54,3.48-23.55c0.07-7.52-0.67-15.19,4.26-21.75c3.51-13.49,5.5-27.53,14.04-39.31c3.21-2,6.87-0.76,10.31-1.22
			c0.65,5.1,1.29,10.19,1.94,15.29c7.13,19.34,2.72,39.41,3.34,59.12C226.16,625.98,228.86,638.14,221.58,648.8z"/>
		<path class="st18" d="M189.95,627.25c0,2.06,0,4.12,0.01,6.17c-6.76-1.4-12.78,2.78-18.79,2.94c-3.79-2.52-2.92-5.85-2.91-8.79
			c0.02-6.72-4-11.78-9.58-12.2c-12.62-0.95-14.69-8.92-15.29-18.82c7.42-6.13,14.78-11.99,24.58-14.46
			c7.81-1.97,14.92-2.33,22,1.68C194.83,598.27,194.75,612.76,189.95,627.25z"/>
		<path class="st21" d="M189.95,627.25c0.01-14.49,0.02-28.99,0.02-43.48c2.07-1.03,4.14-2.07,6.21-3.1
			c0,11.33-0.11,22.66,0.04,33.99C196.29,620.05,196.12,625.08,189.95,627.25z"/>
		<path class="st27" d="M287.34,328.59c-7.04,2.16-13.49-0.6-18.58,2.04c-3.96,7.22,4.97,7.31,5.2,12.44
			c-0.3,0.95-0.4,2.65-1.25,3.78c-4.41,5.85-10.75,7.61-17.7,7.79c-50.98,1.29-101.95,3.92-152.96,0.51
			c-7.14-0.48-14.42-1.08-21.59,0.69c-19.59-30.84,0.86-50.23,28.41-52.02c1.55-10.14,1.65-20.96,15.05-25.19
			c12.11-3.82,19.72,1.69,27.16,8.84c5.73-0.3,5.93-5.6,8.56-8.39c10.14-10.78,22.4-16.15,37.15-15.79
			c2.53,0.06,6.26-0.22,7.36,1.23c6.73,8.86,19.36,9.77,25.67,19.04c-17.12,17.83-17.63,19.56-8.04,26.95
			c3.61-1.74,3.85-5.73,5.57-8.67c10.62-18.16,36.4-20.23,48.66-3.14C282.16,307.26,288.18,316.5,287.34,328.59z"/>
		<path class="st3" d="M23.14,503.76c-0.65-21.51,7.9-34.34,28.27-36.72c15.53-1.82,27.34-7.66,36.85-19.45
			c10.07-12.48,22.89-13.41,35.9,2.53c3.23,3.96,6.27,8.08,9.71,12.52c7.78-0.55,14.78,2.24,21.78,5.73
			c12.32,6.13,15.31,17.38,16.23,29.29c0.73,9.49-1.94,11.86-11.64,11.99c-19.57,0.25-39.15,0.04-58.72,0.04
			c-20.09,0-40.18,0.01-60.27,0.02C35.07,509.7,28.74,510.24,23.14,503.76z"/>
		<path class="st23" d="M224.27,57.13c-0.04-10.19,8.28-19.45,17.9-19.91c9.71-0.46,18.56,8.74,18.31,19.05
			c-0.23,9.58-8.45,17.81-17.84,17.86C232.76,74.19,224.31,66.36,224.27,57.13z"/>
		<path class="st3" d="M762.05,151.7c1.02-2.57,2.36-5.15,5.3-4.88c4.27,0.4,6.18,3.34,5.63,7.55c-0.43,3.22-2.9,4.02-5.68,3.67
			C763.64,157.57,762.17,155.09,762.05,151.7z"/>
		<path class="st15" d="M307.51,820.07c0.77,1.89,1.64,3.76,2.31,5.69c5.93,17.09-0.88,25.61-18.92,23.44
			c-2.63,5.94,1.51,13.76-5.75,19.27c-1.62,0.18-4.13,0.71-6.65,0.71c-51.67,0.02-103.34,0-155.02-0.07
			c-15.58-0.02-28.44-4.95-34.62-20.67c-3.78-9.62-3.68-19.13,2-28.18c16.23-25.86,30.34-30.71,57.5-22.94
			c8.14-6.31,12.26-17.96,23.62-20.89c10.27-2.65,20.36-1.25,28.9,2.85c5.43-1.79,3.3-7.3,7.81-9.34
			c12.3,0.2,22.85,6.27,32.12,14.78c8.42,7.72,7.99,11.78-1.09,19.8c-1.11,0.98-2.05,2.17-3.26,3.46c0.31,6.89,4.08,9.49,10.2,7.47
			c4.82-1.6,9.3-4.39,13.75-6.95c15.04-8.64,24.03-6.1,32.44,9.9c4.63,0.56,9.69,1.16,14.75,1.77L307.51,820.07z"/>
		<path class="st21" d="M214.75,763.84c2.01-4.41,5.85-6.77,9.61-9.57c9.89-7.36,19.11-15.14,22.16-28.44
			c1.26-5.51,3.66-13.76,15.09-10.21c-3.17,16.94-12.17,29.43-25.78,39.13c-4.04,2.88-10.09,3.22-11.72,9.18
			C220.99,763.9,217.87,763.87,214.75,763.84z"/>
		<path class="st8" d="M239.46,770.17c9.7-1.04,15.39,6.07,21.94,11.11c5.47,4.2,10.32,9.2,15.45,13.85
			c-6.82,2.6-13.65,5.21-21.09,8.05C253.56,790.04,248.04,779.31,239.46,770.17z"/>
		<path class="st19" d="M143.24,707.95c13.56,0,27.11-0.06,40.67,0.04c3.31,0.02,7.22-1.25,9.2,3.03
			c-0.43,10.91-8.33,17.84-24.93,21.84c-5.64,0.86-9.69-1.63-13.48-5.62c-3.49-3.66-6.46-8.04-11.39-10.14
			c-0.27-2.51-0.55-5.02-0.82-7.53C142.51,708.92,142.76,708.38,143.24,707.95z"/>
		<path class="st21" d="M168.18,732.86c6.72-4.32,12.17-10.47,20.04-13.2c3.64-1.26,5.13-4.7,4.89-8.65
			c9.5,0.21,19.11,0.71,24.81-9.27c26.18-15.91,46.75-14.88,62.04,3.1c3.09,6.14,8.83,9.91,13.31,14.8
			c10.91,11.94,12.86,26.34,10.98,41.5c-0.36,2.87-1.63,7.07-6.79,8.28c-3.61-4.27-2.12-9.62-1.84-14.29
			c1.17-20.07-11.67-32.99-23.49-46.17c-3.15-3.52-9.18-6.11-14.23-3.66c-15.34,7.44-32.49,7.73-48.3,13.06
			c-10.63,3.58-21.3,7.2-29.27,15.92c-1.14,1.24-3.76,1.13-5.7,1.64C172.03,735.83,169.25,736.16,168.18,732.86z"/>
		<path class="st28" d="M221.58,648.8c0.08-31.12-1.46-62.26,0.89-93.36c5.95-0.55,9.29,3.54,13.02,7.13
			c38.61,37.17,85.28,59.8,136.3,73.66c32.1,8.72,65.05,12.01,98.47,13.57c22.08,1.03,43.83-1.09,65.69-1.37
			c21.26-0.28,42.42-5.22,63.19-10.28c30.45-7.41,59.54-18.6,86.99-33.9c22.91-12.76,44.85-26.87,63.89-45.13
			c2.91-2.79,5.25-6.6,10.05-6.54c2.08,27.86,0.3,55.77,1.12,83.64c0.55,8.41-8.07,9.07-11.72,13.93
			c-12.76,3.48-19.74,12.39-23.1,24.72c-0.72,1.41-1.7,2.59-2.92,3.58c-2.19,1.21-4.53,1.66-7.01,1.53
			c-2.55-0.36-4.78-1.29-6.22-3.58c0.19-3,1.79-6.03-0.24-8.97c-34.6-9.62-70.19,16.77-95.5,71.56
			c-48.25-17.54-93.42-11.38-135.5,21.12c-15.18-21.82-32.3-40.58-62.57-40.52c-28.28,0.05-48.94,12.49-65.87,35.91
			c-7.66-17.66-13.53-34.95-30.1-44.59l0.04,0.05c-5.03-3.4-11.95-3.62-15.6-9.33l0.06,0.04c-8.46-4.5-16.56-9.75-26.91-9
			c-6.02,0.43-11.02-2.81-14.35-7.59c-8.88-12.75-21.43-21.52-33.02-31.34C228.22,650.99,225.17,649.39,221.58,648.8z"/>
		<path class="st23" d="M748.59,648.84c-0.08-3.32,1.37-5.17,4.47-6.8c2.85-1.5,6.96-1.8,8.12-5.82c7.18,0.12,14.36,0.23,21.55,0.35
			c16.4,3.73,23.27,16.8,27,30.79c2.56,9.6,5.67,17.2,14.47,22.14c1.46,0.82,1.87,3.5,2.77,5.32c-0.48,0.52-0.95,1.03-1.42,1.56
			c-5.35,1.16-9.61-3.01-16.05-3.01c-5.64-0.51-5.43,14.76-15.4,7.61c-3.5-6.75,0.1-13.09,1.2-19.55
			c3.26-19.09-1.04-23.7-20.13-21.39c-1.54,0.19-3.04-0.33-4.43-1.08C766.09,649.61,754.44,655.57,748.59,648.84z"/>
		<path class="st23" d="M710.21,676.4c2.49,0.19,4.97,0.37,7.46,0.56c3.85,4.11,4.37,9.34,3.91,14.42
			c-1.6,17.82,7.26,28.53,22.14,36.82c7.41,4.13,17,4.86,22.12,12.93c1.63,8.89-4.32,8.8-10.28,8.7c-1.55,0.01-3.1-0.01-4.64-0.05
			c-1.49-0.23-2.95-0.64-4.35-1.21c-6.19-4.31-12.5-8.37-19.22-11.97c-11.17-5.98-18.92-15-19.06-28.69
			c-0.89-4.09-1.78-8.18-2.66-12.26c-3.02-4.27-3.22-8.5,0.16-12.69l-0.14-1.35c-0.02-1.98,1.3-3.3,2.34-4.76
			C708.7,676.61,709.45,676.46,710.21,676.4z"/>
		<path class="st21" d="M640.72,821.72c-4.71-10.37-33.07-58.82-40.32-66.21c8.09,0,15.29,0,21.51,0
			C645.8,772.93,645.53,796.8,640.72,821.72z"/>
		<path class="st19" d="M708.28,707.91c6.98,12.95,13.35,26.16,30.08,29.71c4.6,0.97,8.44,5.57,10.31,10.67
			c-2.91,1.72-5.27,5.07-9.4,3.14c-7.13-6.67-17.54-6.48-25.24-12.35c-6.25-4.76-11.61-9.93-14.3-17.28
			C697.15,714.73,699.08,711.98,708.28,707.91z"/>
		<path class="st28" d="M751.91,748.27c4.72-0.85,11.95,3.2,12.24-6.28c15.48-6.63,32.17-5.4,48.36-7.38
			c1.81,1.04,2.24,2.5,1.29,4.37c-3.81,6.7-10.94,7.25-17.19,8.28c-14.52,2.39-29.1,5.04-43.97,3.83
			C750.33,750.69,750.08,749.76,751.91,748.27z"/>
		<path class="st23" d="M813.81,738.97c-0.04-1.11-0.08-2.21-0.12-3.32c5.29-12.97,7.64-26.85,12.36-39.99l0.92-0.83
			C836.08,715.4,832.33,728.01,813.81,738.97z"/>
		<path class="st21" d="M739.27,751.43c3.13-1.05,5.69-3.82,9.4-3.14l-0.03-0.03c0.78,0.7,1.04,1.4,0.77,2.1
			c-0.27,0.69-0.53,1.04-0.8,1.04c-3.77,1.53-2.77,4.88-3.13,7.82c-1.26,10.31-3.95,19.88-15.05,25.67
			C730.03,772.4,740.56,763.36,739.27,751.43z"/>
		<path class="st19" d="M705.77,682.97c-0.05,4.23-0.1,8.46-0.16,12.69C700.38,691.36,700.26,687.13,705.77,682.97z"/>
		<path class="st19" d="M707.98,676.85c0.24,2.09-0.58,3.66-2.34,4.76C705.29,679.48,705.84,677.77,707.98,676.85z"/>
		<path class="st21" d="M323.42,726.59c-1.73-0.32-2.76-1.36-3.1-3.08C322.06,723.83,323.09,724.86,323.42,726.59z"/>
		<path class="st19" d="M748.62,751.4c0.01-1.05,0.02-2.1,0.03-3.14c1.09,0,2.18,0,3.27,0.01c0.1,0.98,0.35,1.91,0.75,2.81
			C751.31,751.18,749.96,751.29,748.62,751.4z"/>
		<path class="st23" d="M478.24,829.11c-1.64-0.58-2.52-1.76-2.69-3.48C477.33,826.11,478.28,827.23,478.24,829.11z"/>
		<path class="st16" d="M230.65,653.74c15.21,2.05,23.87,13.22,32.13,24.19c5.52,7.35,10.66,12.81,20.88,12.72
			c5.81-0.05,11.62,3.44,17.49,5.12c3.18,0.91,3.32,3.42,3.77,5.9c-4.69-0.47-9.86,1.79-13.4-4.04c-1.98-3.26-6.16-2.41-9.55-1.25
			c-2.92,2.37-1.63,5.62-2.01,8.47c-10.39-4.23-19.64-11.84-32.17-9.46c-5.75,1.09-11.69-0.93-16.55,5.1
			c-2.69,3.33-8.77,0.88-13.31,1.26c-0.72-5.46,3.52-8.05,6.58-11.29C239,675.18,239.65,671.37,230.65,653.74z"/>
		<path class="st16" d="M304.86,701.63c6.3,1.27,11.89,3.73,15.6,9.33C313.45,710.89,305.16,712.95,304.86,701.63z"/>
		<path class="st29" d="M472.42,875.65c-0.02,1.01-0.04,2.02-0.07,3.04c-9.47,1.4-17.95-2.77-28-4.18
			c3.38-8.96,13.41-12.07,14.96-20.93c-15.77-10.33-16.46-9.93-26.32,15.66c-7.47-1.27-15.17-1.82-16.48-12.02
			c-1.64-12.76,0.72-17.23,11-22.71c10.95-5.83,22.64-6.04,34.49-5.32c6.15,0.37,9.29,5.57,13.39,9.16
			c2.23,10.64-3.61,20.53-2.92,31.03C474.09,871.49,474.33,873.58,472.42,875.65z"/>
		<path class="st20" d="M472.42,875.65c0.02-2.09,0.04-4.18,0.05-6.27c3.12,1.05,3.01,3.65,2.99,6.21
			C474.45,875.62,473.43,875.63,472.42,875.65z"/>
		<path class="st26" d="M524.88,475.53c0.13,2.57,1.33,4.51,3.42,5.95c-6.26,5.22-14.63,5.03-21.49,5.43
			c-47.14,2.71-93.07-2.93-135.67-25.17c-23.86-12.46-40.44-30.59-46.39-57.95c-2.69-12.38,1.09-23.34,3.65-34.54
			c6.4-28.09,26.16-45.91,49.91-59.31c10.25-5.79,18.71-16.4,32.42-14.96c2.88,21.18,17.39,39.35,15.91,61.65
			c-8.72,15.37-17.76,30.5-16.6,49.36c0.47,7.63,2.91,13.75,7.88,19.33c13.26,14.89,30.81,21.91,49.64,24.3
			c13.53,1.72,27.05,4.49,41.01,4.02c8.77-0.3,17.01-2.97,25.63-3.24c5.39,6.16,1.15,10.31-3.08,14.37
			C527.98,467.77,522.51,469.35,524.88,475.53z"/>
		<path class="st25" d="M426.64,356.61c-4.38-20.79-20.76-38.48-15.91-61.65c5.01-7.03,11.73-10.15,20.41-9.36
			c4.47,0.41,9,0.21,13.5,0.28c11.22,2.76,24,3.51,25.09,19.39c-2.34,6.92-4.67,13.83-7.01,20.75c-7.79,5.39-10.97-0.82-14.39-5.89
			c-2.85-4.24-4.64-9.2-8.33-12.86c-3.47-3.44-6.17-2.6-9.07,3.66c14.68,3.4,19.1,14.44,21.05,27.7
			c2.59,17.55,1.43,19.19-17.02,18.83C432.18,357.18,429.41,356.9,426.64,356.61z"/>
		<path class="st26" d="M469.72,305.28c-4.73-11.17-15.53-14.47-25.09-19.39c12.66-1.93,25.31-3.86,37.97-5.79
			c-1.2,7.21-8.49,12.17-7.45,20.2c-0.41,1.55-1.61,2.66-2.29,4.06C471.82,304.67,470.77,304.97,469.72,305.28z"/>
		<path class="st25" d="M472.59,356.56c9.04,6.34,18.13,12.16,25.06,21.5c7.81,10.52,21.04,11.85,33.24,13.03
			c12.25,1.18,24.51,0.1,36.3-3.81c5.45-1.81,10.88-2.71,16.57-2c0.87,0.55,1.22,1.18,1.05,1.88c-0.17,0.73-0.39,1.1-0.64,1.1
			c-0.07,4.57-0.17,9.13-0.19,13.7c-0.07,15.09-0.86,15.21-14.47,20.64c-10.84,4.33-22.15,1.29-32.92,4.08
			c-18.17,2.65-34.5-0.73-47.63-14.54c-1.36-0.58-2.67-1.29-3.91-2.1c-8.61-7.73-19.77-10.23-31.27-15.41
			c8.46,11.27,22.02,8.43,31.05,15.12c1.71,1.6,4.05,2.47,5.18,4.71c1.78,4.98,2.26,9.81-1.62,14.13
			c-20.34,1.35-38.41-4.99-54.84-16.5c-4.62-3.24-8.67-7.15-11.21-12.53c-3.3-7.01-3.63-13.03,0.83-20.19
			c3.99-6.42,11.68-10.6,12.15-19.19c11.5-7.42,19.33,2.68,27.82,6.19C469.34,365.26,468.54,358.71,472.59,356.56z"/>
		<path class="st25" d="M583.81,440.97c4.83-10.27,6.82-21.23,7.12-31.92c4.62-3.57,5,2.51,7.92,2.36c4.3-2.06,7-5.96,10.08-9.35
			c4.73-5.19,9.77-8.96,17.38-7.76c5.52,0.87,9.7-2.77,14.23-5.06c4.6-2.33,9.22-4.82,14.61-3.91c6.4,1.08,13.55,1.11,16.76,8.35
			c3.12,7.05-0.48,12.99-4.54,18.14c-3.14,3.97-7.57,6.92-9.47,8.61c-2.2,5.8,2.78,7.97,0.26,12.12
			c-19.62,8.35-38.87,18.8-61.14,20.58C592.07,449.66,582.89,450.82,583.81,440.97z"/>
		<path class="st19" d="M472.59,356.56c0,4.55,0,9.11,0,12.95c-4.54,4.8-9.19,2.22-14.11,3.24c-3.95-11.6-12.7-13.82-23.14-12.6
			c-0.26-0.88-0.39-1.78-0.38-2.7c0.34-1.98,0.05-4.18,2.01-5.67c4.38-1.61,5.77,3.54,9.78,4.29c1.05-1.33,3.53-3.11,3.3-4.42
			c-1.71-9.93-3.43-19.93-6.24-29.58c-1.63-5.61-4.64-5.74-16.04-2.96c-5.25-7.4,1.66-13.21,2.1-19.78
			c5.17-1.54,8.8-2.27,12.26,3.07c3.63,5.62,7.46,11.1,9.89,17.29c2.07,5.27,5.46,7.05,10.7,6.33
			C462.34,337.39,463.7,348.2,472.59,356.56z"/>
		<path class="st25" d="M524.88,475.53c-3.66-2.32-3.28-5.82-2.62-10.52c6.39-2.23,14.26-4.54,11.94-14.63
			c5.38-0.17,10.77-0.34,16.15-0.5c10.93,0.79,21.29,3.38,30.56,9.52c3.2,8.01,5.42,16.27,6.54,24.83
			c-16.75-5.2-32.29-13.76-51.32-17.79C533.23,468.78,529.05,472.15,524.88,475.53z"/>
		<path class="st26" d="M580.9,459.4c-11.4,0.72-21.18-3.73-30.56-9.52c10.84-4.17,21.51-8.95,33.47-8.91
			c2.34,6.3,10.32,6.45,13.21,12.14C591.23,454.11,585.6,455.56,580.9,459.4z"/>
		<path class="st26" d="M488.75,410.13c7.76-0.81,10.02,7.62,16.66,9.66c10.28,3.16,20.42,6.18,31.18,6.88
			c-15.88,5.14-31.86,7.9-48.19,1.91c-0.02-5.16-0.03-10.32-0.05-15.48c-0.6-0.59-1.21-1.17-1.81-1.76
			C487.28,410.94,488.01,410.54,488.75,410.13z"/>
		<path class="st26" d="M584.17,388.26c-0.19-0.99-0.33-1.98-0.42-2.98c2.13-3.41,6.08-4.18,9.13-6.26
			c5.55,5.97,12.82,1.79,19.13,3.26c-2.43,11.27-11.14,15.37-21.72,10.1C588.11,391.29,586.21,389.65,584.17,388.26z"/>
		<path class="st29" d="M503.31,355.66c7.43-4.98,13.83-8.33,23.73-5.94c15.24,3.67,30.45,1.26,43.65-8.61
			c3.67-2.75,7.35-5.65,11.43-7.66c8.05-3.97,14.32,0.19,14.37,9.22c0.08,13.71-9.54,22.46-19.26,27.9
			c-15.73,8.81-33.71,10.9-51.88,6.81C513.64,374.75,507.14,367.15,503.31,355.66z"/>
		<path class="st29" d="M514.78,291.33c11.18,17.96-5.97,31.05-2.03,44.65c-1.77,2.15-2.27,3.18-3.09,3.68
			c-7.16,4.38-14.66,8.34-22.61,2.27c-8.54-6.52-5.7-15.72-4.18-24.09c1.64-9.02,8.69-15.75,10.41-25.81
			C501.1,294.05,507.85,296.1,514.78,291.33z"/>
		<path class="st29" d="M569.42,274.66c8.4,1.26,15.82,2.57,21.99,7.49c9.31,7.43,12.49,17.07,11.41,28.68
			c-0.38,4.09-1.94,7.26-5.55,8.45c-3.95,1.3-7.8,0.65-11.52-2.28c-4.6-3.62-5.69-8.99-6.35-13.59
			C577.94,293.19,574.85,283.88,569.42,274.66z"/>
		<path class="st29" d="M559.17,325.4c-0.16,8.66-4.73,11.82-11.62,14.59c-7.52,3.02-12.67-1.73-18.77-3.23
			c-1.43-0.35-2.63-2.99-3.28-4.8c-0.46-1.29-0.38-3.46,0.42-4.41c5.58-6.53-2.04-17.05,7.57-22.88
			C545.42,307.38,552.06,317.06,559.17,325.4z"/>
		<path class="st29" d="M562.3,298.22c-7.09-4.35-14.51-6.41-23.11-6.66c-11.75-0.34-23.44-2.75-38.75-4.75
			c13.76-7.83,25.12-11.54,36.81-13.32c15.95-2.44,25.41,6.34,28.31,24.61C564.52,299.18,563.43,299.22,562.3,298.22z"/>
		<path class="st20" d="M562.3,298.22c1.09-0.04,2.18-0.08,3.27-0.12c4.12,5,8.23,9.99,12.6,15.3c-2.82,4.02-5.39,7.69-8.84,12.61
			C565.68,316.41,560,308.49,562.3,298.22z"/>
		<path class="st28" d="M472.87,304.36c-0.12-1.85,0.78-3.13,2.29-4.06C475.39,302.21,474.66,303.59,472.87,304.36z"/>
		<path class="st29" d="M826.05,695.65c1.56,15.09,0.12,29.25-12.36,39.99c-15.83,7.47-32.72,6.57-49.53,6.34
			c-10.43-3.34-19.63-9.07-29.09-14.4c-11.64-6.55-18.42-15.35-17.6-29.25c0.42-7.1,0.16-14.25,0.2-21.37
			c2.04-0.01,4.07-0.01,6.11-0.02c4.26-0.79,8.12,2.09,12.13,1.75c14.29-1.2,21.67,7.06,26.9,18.65c1.06,0.89,2.06,1.85,3.06,2.8
			c1.07,0.86,2.08,1.78,3.12,2.67c0.55,0.4,1.07,0.84,1.63,1.24c7.99,5.65,15.34,2.91,22.55-1.69c0.66-0.21,1.32-0.41,1.99-0.6
			c2.57-0.07,5.38-0.15,5.9-3.34c0.75-4.59,2.63-8.44,6.37-12.18C813.61,689.37,819.83,692.51,826.05,695.65z"/>
		<path class="st29" d="M748.59,648.84c7.62,0,15.24,0,23.1,0c-0.54,3.68-0.96,6.57-1.38,9.45c-0.06,0.65-0.11,1.31-0.15,1.97
			c-1.03,3.16-2.37,6.2-3.59,9.31c-0.56,1.31-1.27,2.52-2.07,3.69c-0.84,1.21-1.79,2.31-2.8,3.38c-0.54,0.53-1.09,1.02-1.63,1.55
			c-13,5.95-24.96,3.58-36.19-4.56C726.67,656.71,733.51,649.84,748.59,648.84z"/>
		<path class="st23" d="M723.88,673.63c6.28,1.08,13.28,1.76,18.52,4.12c8.4,3.79,13-0.28,18.66-3.99
			c5.63,8.82,7.06,18.11,3.09,27.99c-3.45,0.19-5.05-1.6-6.94-4.53c-2.51-3.9-1.32-9.3-6.9-13.2c-7.46-3.39-19.39,3.09-26.53-7.08
			C723.81,675.84,723.84,674.74,723.88,673.63z"/>
		<path class="st29" d="M764.14,701.76c-3.4-9.07-3.53-18.5-3.09-27.99l-0.07,0.07c1.17-0.95,2.12-2.13,3.18-3.18l-0.07,0.08
			c3.31-3.55,3.14-8.84,6.26-12.48l-0.04,0.04c5.04,0.48,8.46-3.31,12.74-4.84c9.18-3.3,11.92-0.96,15.52,8.24
			c4.1,10.47,1.12,20-1.54,29.64c-0.97,3.5-2.05,6.8-1.89,10.43l0.03-0.03c-8.61,7.44-17.96,8.27-27.97,3.11l0.03,0.03
			c-1.05-1.04-1.99-2.2-3.14-3.14L764.14,701.76z"/>
		<path class="st21" d="M484.81,409.86c-16.45,0.22-30.86-3.77-42.44-21.66c16.65,3.61,29.33,8.31,40.85,16.02
			c1.24,0.83,1.09,3.72,1.58,5.66L484.81,409.86z"/>
		<path class="st21" d="M488.75,410.13c-0.07,1-0.2,1.99-0.4,2.97c-1.85-0.35-3.12-1.33-3.54-3.24l-0.02,0.02
			C486.11,409.96,487.43,410.05,488.75,410.13z"/>
		<path class="st21" d="M660.28,392.2c-3.72,14.55-15.31,20.23-27.83,22.57c-10.42,1.94-19.2,5.68-27.11,12.29
			c-1.3,1.08-2.7,1.18-5.37-0.81c5.17-8.65,13.7-13.38,21.99-18.07c3.89-2.2,8.52-3.8,12.94-4.19c5.7-0.5,9.25-2.27,12-7.66
			C649.23,391.75,650.11,392.19,660.28,392.2z"/>
		<path class="st23" d="M767.21,704.84c9.42-0.16,18.96,0.81,27.97-3.11C788.32,713.63,777.66,714.82,767.21,704.84z"/>
		<path class="st23" d="M764.11,701.73c1.81,0.29,2.9,1.28,3.14,3.14C765.43,704.59,764.33,703.6,764.11,701.73z"/>
		<path class="st23" d="M770.35,658.25c0.47,5.44-0.21,10.31-6.26,12.48C763.79,665.38,764.2,660.38,770.35,658.25z"/>
		<path class="st23" d="M764.16,670.66c-0.36,1.76-1.36,2.88-3.18,3.18C761.34,672.07,762.35,670.96,764.16,670.66z"/>
	</g>
</g>
</svg>
